<?xml version="1.0" encoding="utf-8"?>
<!-- Generator: Adobe Illustrator 23.1.1, SVG Export Plug-In . SVG Version: 6.00 Build 0)  -->
<svg version="1.1" id="Layer_1" xmlns="http://www.w3.org/2000/svg" xmlns:xlink="http://www.w3.org/1999/xlink" x="0px" y="0px"
	 viewBox="0 0 2369.4 1600" style="enable-background:new 0 0 2369.4 1600;" xml:space="preserve">
<style type="text/css">
	.st0{fill:#606060;}
	.st1{fill:#EAEAEA;}
	.st2{fill:#323232;}
	.st3{font-family:'ProximaNova-Bold';}
	.st4{font-size:48px;}
	.st5{fill:#1E1E1E;}
	.st6{font-family:'ProximaNova-Regular';}
	.st7{font-size:25.5025px;}
	.st8{fill:#66C2A5;}
	.st9{fill:#A6D854;}
	.st10{fill:#8DA0CB;}
	.st11{fill:#E5C494;}
	.st12{fill:#FFD92F;}
	.st13{fill:#FC8D62;}
	.st14{fill:#E78AC3;}
</style>
<g transform="scale(2,2)">
	<rect x="110.6" y="241.1" class="st0" width="837.7" height="60.3"/>
</g>
<g transform="scale(2,2)">
	<rect x="110.6" y="292.3" width="837.7" height="398.1"/>
</g>
<g transform="scale(2,2)">
	<rect x="110.6" y="135.2" class="st1" width="837.7" height="107.2"/>
</g>
<g>
	<g>
		<text transform="matrix(1 0 0 1 78.0699 180.6532)" class="st2 st3 st4">1994-2003: Who was involved in Nuclear Testing?</text>
	</g>
</g>
<g>
	<text transform="matrix(1 0 0 1 87.1783 316.0927)" class="st5 st6 st7">1994</text>
</g>
<g>
	<text transform="matrix(1 0 0 1 87.1783 425.3886)" class="st5 st6 st7">1995</text>
</g>
<g>
	<text transform="matrix(1 0 0 1 87.1783 534.6855)" class="st5 st6 st7">1996</text>
</g>
<g>
	<text transform="matrix(1 0 0 1 87.1783 643.9824)" class="st5 st6 st7">1997</text>
</g>
<g>
	<text transform="matrix(1 0 0 1 87.1783 753.2792)" class="st5 st6 st7">1998</text>
</g>
<g>
	<text transform="matrix(1 0 0 1 87.1783 862.5761)" class="st5 st6 st7">1999</text>
</g>
<g>
	<text transform="matrix(1 0 0 1 87.1783 971.8725)" class="st5 st6 st7">2000</text>
</g>
<g>
	<text transform="matrix(1 0 0 1 87.1783 1081.1694)" class="st5 st6 st7">2001</text>
</g>
<g>
	<text transform="matrix(1 0 0 1 87.1783 1190.4663)" class="st5 st6 st7">2002</text>
</g>
<g>
	<text transform="matrix(1 0 0 1 87.1783 1299.7612)" class="st5 st6 st7">2003</text>
</g>
<g>
	<text transform="matrix(1 0 0 1 291.7145 1481.9233)" class="st5 st6 st7">China</text>
</g>
<g>
	<text transform="matrix(1 0 0 1 522.3385 1481.9233)" class="st5 st6 st7">France</text>
</g>
<g>
	<text transform="matrix(1 0 0 1 770.611 1481.9233)" class="st5 st6 st7">India</text>
</g>
<g>
	<text transform="matrix(1 0 0 1 987.6188 1481.9233)" class="st5 st6 st7">Pakistan</text>
</g>
<g>
	<text transform="matrix(1 0 0 1 1234.9987 1481.9233)" class="st5 st6 st7">Russia</text>
</g>
<g>
	<text transform="matrix(1 0 0 1 1417.8571 1481.9233)" class="st5 st6 st7">United Kingdom</text>
</g>
<g>
	<text transform="matrix(1 0 0 1 1669.8917 1481.9233)" class="st5 st6 st7">United States</text>
</g>
<path class="st8" d="M299.4,316.1c0-13.6,11-24.6,24.6-24.6s24.6,11,24.6,24.6s-11,24.6-24.6,24.6S299.4,329.7,299.4,316.1z"/>
<path class="st8" d="M298.5,425.4c0-14.1,11.4-25.5,25.5-25.5s25.5,11.4,25.5,25.5s-11.4,25.5-25.5,25.5S298.5,439.5,298.5,425.4z"
	/>
<path class="st8" d="M299.4,534.7c0-13.6,11-24.6,24.6-24.6s24.6,11,24.6,24.6c0,13.6-11,24.6-24.6,24.6S299.4,548.3,299.4,534.7z"
	/>
<path class="st8" d="M300.3,862.6c0-13.1,10.6-23.7,23.7-23.7s23.7,10.6,23.7,23.7c0,13.1-10.6,23.7-23.7,23.7
	S300.3,875.7,300.3,862.6z"/>
<path class="st8" d="M297.6,1081.2c0-14.6,11.8-26.4,26.4-26.4s26.4,11.8,26.4,26.4s-11.8,26.4-26.4,26.4S297.6,1095.8,297.6,1081.2
	z"/>
<path class="st9" d="M533.5,425.4c0-15.1,12.2-27.3,27.3-27.3s27.3,12.2,27.3,27.3c0,15.1-12.2,27.3-27.3,27.3
	S533.5,440.5,533.5,425.4z"/>
<path class="st9" d="M537.1,534.7c0-13.1,10.6-23.7,23.7-23.7s23.7,10.6,23.7,23.7s-10.6,23.7-23.7,23.7S537.1,547.8,537.1,534.7z"
	/>
<path class="st10" d="M773,753.3c0-13.6,11-24.6,24.6-24.6s24.6,11,24.6,24.6s-11,24.6-24.6,24.6S773,766.9,773,753.3z"/>
<path class="st11" d="M1009.8,753.3c0-13.6,11-24.6,24.6-24.6c13.6,0,24.6,11,24.6,24.6s-11,24.6-24.6,24.6
	S1009.8,766.9,1009.8,753.3z"/>
<path class="st12" d="M1247.5,425.4c0-13.1,10.6-23.7,23.7-23.7s23.7,10.6,23.7,23.7s-10.6,23.7-23.7,23.7
	S1247.5,438.5,1247.5,425.4z"/>
<path class="st12" d="M1243.9,753.3c0-15.1,12.2-27.3,27.3-27.3c15.1,0,27.3,12.2,27.3,27.3s-12.2,27.3-27.3,27.3
	S1243.9,768.4,1243.9,753.3z"/>
<path class="st12" d="M1242.1,862.6c0-16.1,13-29.1,29.1-29.1s29.1,13,29.1,29.1s-13,29.1-29.1,29.1
	C1255.1,891.7,1242.1,878.7,1242.1,862.6z"/>
<path class="st12" d="M1243.9,971.9c0-15.1,12.2-27.3,27.3-27.3c15.1,0,27.3,12.2,27.3,27.3s-12.2,27.3-27.3,27.3
	S1243.9,987,1243.9,971.9z"/>
<path class="st13" d="M1484.4,1190.5c0-13.1,10.6-23.7,23.7-23.7s23.7,10.6,23.7,23.7s-10.6,23.7-23.7,23.7
	S1484.4,1203.5,1484.4,1190.5z"/>
<path class="st14" d="M1720.3,644c0-13.6,11-24.6,24.6-24.6s24.6,11,24.6,24.6s-11,24.6-24.6,24.6S1720.3,657.6,1720.3,644z"/>
<path class="st14" d="M1719.3,753.3c0-14.1,11.4-25.5,25.5-25.5s25.5,11.4,25.5,25.5s-11.4,25.5-25.5,25.5
	C1730.8,778.8,1719.3,767.4,1719.3,753.3z"/>
<path class="st14" d="M1719.3,862.6c0-14.1,11.4-25.5,25.5-25.5s25.5,11.4,25.5,25.5s-11.4,25.5-25.5,25.5
	C1730.8,888.1,1719.3,876.7,1719.3,862.6z"/>
<path class="st14" d="M1717.5,971.9c0-15.1,12.2-27.3,27.3-27.3c15.1,0,27.3,12.2,27.3,27.3s-12.2,27.3-27.3,27.3
	C1729.8,999.2,1717.5,987,1717.5,971.9z"/>
<path class="st14" d="M1720.3,1081.2c0-13.6,11-24.6,24.6-24.6s24.6,11,24.6,24.6s-11,24.6-24.6,24.6
	C1731.3,1105.8,1720.3,1094.8,1720.3,1081.2z"/>
<path class="st14" d="M1719.3,1190.5c0-14.1,11.4-25.5,25.5-25.5s25.5,11.4,25.5,25.5s-11.4,25.5-25.5,25.5
	C1730.8,1216,1719.3,1204.5,1719.3,1190.5z"/>
<path class="st14" d="M1720.3,1299.8c0-13.6,11-24.6,24.6-24.6s24.6,11,24.6,24.6s-11,24.6-24.6,24.6S1720.3,1313.3,1720.3,1299.8z"
	/>
<rect x="1987.8" y="717.2" class="st1" width="70.3" height="35.2"/>
<rect x="1987.8" y="782.4" class="st0" width="70.3" height="35.2"/>
<rect x="1987.8" y="847.6" width="70.3" height="35.2"/>
<text transform="matrix(1 0 0 1 2084.4333 742.5898)" class="st5 st6 st7">Pre-Treaty</text>
<text transform="matrix(1 0 0 1 2084.4336 806.2385)" class="st5 st6 st7">CTBO Treaty Signed</text>
<text transform="matrix(1 0 0 1 2084.4336 873.2571)" class="st5 st6 st7">Post Treaty</text>
</svg>
