<?xml version="1.0" encoding="utf-8"?>
<!-- Generator: Adobe Illustrator 23.1.1, SVG Export Plug-In . SVG Version: 6.00 Build 0)  -->
<svg version="1.1" id="Layer_1" xmlns="http://www.w3.org/2000/svg" xmlns:xlink="http://www.w3.org/1999/xlink" x="0px" y="0px"
	 viewBox="0 0 2928.3 3038.3" style="enable-background:new 0 0 2928.3 3038.3;" xml:space="preserve">
<style type="text/css">
	.st0{fill:#606060;}
	.st1{fill:#EAEAEA;}
	.st2{fill:#1E1E1E;}
	.st3{font-family:'ProximaNova-Regular';}
	.st4{font-size:27.6181px;}
	.st5{fill:#66C2A5;}
	.st6{fill:#A6D854;}
	.st7{fill:#8DA0CB;}
	.st8{fill:#E5C494;}
	.st9{fill:#FFD92F;}
	.st10{fill:#FC8D62;}
	.st11{fill:#E78AC3;}
	.st12{fill:#B3B3B3;}
	.st13{font-size:25.5025px;}
	.st14{fill:#323232;}
	.st15{font-family:'ProximaNova-Bold';}
	.st16{font-size:48px;}
</style>
<rect x="307.8" y="1705.1" width="2079.6" height="1189.5"/>
<rect x="307.8" y="1584.5" class="st0" width="2079.6" height="120.6"/>
<rect x="307.8" y="386.6" class="st1" width="2079.6" height="1197.9"/>
<g>
	<text transform="matrix(1 0 0 1 120.8372 462.1885)" class="st2 st3 st4">1986</text>
</g>
<g>
	<text transform="matrix(1 0 0 1 122.9353 580.5518)" class="st2 st3 st4">1987</text>
</g>
<g>
	<text transform="matrix(1 0 0 1 121.1125 698.915)" class="st2 st3 st4">1988</text>
</g>
<g>
	<text transform="matrix(1 0 0 1 120.8372 817.2783)" class="st2 st3 st4">1989</text>
</g>
<g>
	<text transform="matrix(1 0 0 1 119.9807 935.6416)" class="st2 st3 st4">1990</text>
</g>
<g>
	<text transform="matrix(1 0 0 1 127.5203 1054.0049)" class="st2 st3 st4">1991</text>
</g>
<g>
	<text transform="matrix(1 0 0 1 120.6438 1172.3682)" class="st2 st3 st4">1992</text>
</g>
<g>
	<text transform="matrix(1 0 0 1 121.5002 1290.7324)" class="st2 st3 st4">1993</text>
</g>
<g>
	<text transform="matrix(1 0 0 1 121.4719 1409.0957)" class="st2 st3 st4">1994</text>
</g>
<g>
	<text transform="matrix(1 0 0 1 120.5881 1527.459)" class="st2 st3 st4">1995</text>
</g>
<g>
	<text transform="matrix(1 0 0 1 120.5608 1645.8223)" class="st2 st3 st4">1996</text>
</g>
<g>
	<text transform="matrix(1 0 0 1 122.6594 1764.1855)" class="st2 st3 st4">1997</text>
</g>
<g>
	<text transform="matrix(1 0 0 1 120.8372 1882.5488)" class="st2 st3 st4">1998</text>
</g>
<g>
	<text transform="matrix(1 0 0 1 120.5608 2000.9121)" class="st2 st3 st4">1999</text>
</g>
<g>
	<text transform="matrix(1 0 0 1 111.9426 2119.2754)" class="st2 st3 st4">2000</text>
</g>
<g>
	<text transform="matrix(1 0 0 1 119.4827 2237.6387)" class="st2 st3 st4">2001</text>
</g>
<g>
	<text transform="matrix(1 0 0 1 112.6057 2356.002)" class="st2 st3 st4">2002</text>
</g>
<g>
	<text transform="matrix(1 0 0 1 113.4617 2474.3652)" class="st2 st3 st4">2003</text>
</g>
<g>
	<text transform="matrix(1 0 0 1 113.4348 2592.7285)" class="st2 st3 st4">2004</text>
</g>
<g>
	<text transform="matrix(1 0 0 1 112.5505 2711.0918)" class="st2 st3 st4">2005</text>
</g>
<g>
	<text transform="matrix(1 0 0 1 112.5237 2829.4551)" class="st2 st3 st4">2006</text>
</g>
<g>
	<text transform="matrix(1 0 0 1 400.3928 343.8252)" class="st2 st3 st4">China</text>
</g>
<g>
	<text transform="matrix(1 0 0 1 650.1487 343.8252)" class="st2 st3 st4">France</text>
</g>
<g>
	<text transform="matrix(1 0 0 1 919.0168 343.8252)" class="st2 st3 st4">India</text>
</g>
<g>
	<text transform="matrix(1 0 0 1 1154.0266 343.8252)" class="st2 st3 st4">Pakistan</text>
</g>
<g>
	<text transform="matrix(1 0 0 1 1421.928 343.8252)" class="st2 st3 st4">Russia</text>
</g>
<g>
	<text transform="matrix(1 0 0 1 1619.9563 343.8252)" class="st2 st3 st4">United Kingdom</text>
</g>
<g>
	<text transform="matrix(1 0 0 1 1892.8977 343.8252)" class="st2 st3 st4">United States</text>
</g>
<g>
	<text transform="matrix(1 0 0 1 2157.7063 343.8252)" class="st2 st3 st4">North Korea</text>
</g>
<path class="st5" d="M419.6,580.6c0-8.7,7.1-15.8,15.8-15.8s15.8,7.1,15.8,15.8s-7.1,15.8-15.8,15.8S419.6,589.3,419.6,580.6z"/>
<path class="st5" d="M419.6,698.9c0-8.7,7.1-15.8,15.8-15.8s15.8,7.1,15.8,15.8c0,8.7-7.1,15.8-15.8,15.8S419.6,707.6,419.6,698.9z"
	/>
<path class="st5" d="M418.6,935.6c0-9.3,7.5-16.8,16.8-16.8s16.8,7.5,16.8,16.8s-7.5,16.8-16.8,16.8S418.6,944.9,418.6,935.6z"/>
<path class="st5" d="M418.6,1172.4c0-9.3,7.5-16.8,16.8-16.8s16.8,7.5,16.8,16.8c0,9.3-7.5,16.8-16.8,16.8
	S418.6,1181.6,418.6,1172.4z"/>
<path class="st5" d="M418.6,1290.7c0-9.3,7.5-16.8,16.8-16.8s16.8,7.5,16.8,16.8s-7.5,16.8-16.8,16.8S418.6,1300,418.6,1290.7z"/>
<path class="st5" d="M418.6,1409.1c0-9.3,7.5-16.8,16.8-16.8s16.8,7.5,16.8,16.8s-7.5,16.8-16.8,16.8S418.6,1418.4,418.6,1409.1z"/>
<path class="st5" d="M417.6,1527.5c0-9.8,7.9-17.8,17.8-17.8s17.8,7.9,17.8,17.8s-7.9,17.8-17.8,17.8S417.6,1537.3,417.6,1527.5z"/>
<path class="st5" d="M418.6,1645.8c0-9.3,7.5-16.8,16.8-16.8s16.8,7.5,16.8,16.8s-7.5,16.8-16.8,16.8S418.6,1655.1,418.6,1645.8z"/>
<path class="st5" d="M419.6,2000.9c0-8.7,7.1-15.8,15.8-15.8s15.8,7.1,15.8,15.8c0,8.7-7.1,15.8-15.8,15.8
	S419.6,2009.6,419.6,2000.9z"/>
<path class="st5" d="M416.6,2237.6c0-10.4,8.4-18.7,18.7-18.7s18.7,8.4,18.7,18.7c0,10.4-8.4,18.7-18.7,18.7
	S416.6,2248,416.6,2237.6z"/>
<path class="st6" d="M669.1,462.2c0-12.5,10.2-22.7,22.7-22.7c12.5,0,22.7,10.2,22.7,22.7s-10.2,22.7-22.7,22.7
	C679.3,484.9,669.1,474.7,669.1,462.2z"/>
<path class="st6" d="M669.1,580.6c0-12.5,10.2-22.7,22.7-22.7c12.5,0,22.7,10.2,22.7,22.7s-10.2,22.7-22.7,22.7
	C679.3,603.2,669.1,593.1,669.1,580.6z"/>
<path class="st6" d="M669.1,698.9c0-12.5,10.2-22.7,22.7-22.7c12.5,0,22.7,10.2,22.7,22.7s-10.2,22.7-22.7,22.7
	C679.3,721.6,669.1,711.4,669.1,698.9z"/>
<path class="st6" d="M668.1,817.3c0-13.1,10.6-23.7,23.7-23.7s23.7,10.6,23.7,23.7S704.9,841,691.8,841S668.1,830.4,668.1,817.3z"/>
<path class="st6" d="M671.1,935.6c0-11.4,9.3-20.7,20.7-20.7s20.7,9.3,20.7,20.7c0,11.4-9.3,20.7-20.7,20.7S671.1,947.1,671.1,935.6
	z"/>
<path class="st6" d="M671.1,1054c0-11.4,9.3-20.7,20.7-20.7s20.7,9.3,20.7,20.7c0,11.4-9.3,20.7-20.7,20.7S671.1,1065.4,671.1,1054z
	"/>
<path class="st6" d="M672.1,1527.5c0-10.9,8.8-19.7,19.7-19.7s19.7,8.8,19.7,19.7s-8.8,19.7-19.7,19.7S672.1,1538.4,672.1,1527.5z"
	/>
<path class="st6" d="M676,1645.8c0-8.7,7.1-15.8,15.8-15.8c8.7,0,15.8,7.1,15.8,15.8c0,8.7-7.1,15.8-15.8,15.8
	C683.1,1661.6,676,1654.5,676,1645.8z"/>
<path class="st7" d="M931.5,1882.5c0-9.3,7.5-16.8,16.8-16.8s16.8,7.5,16.8,16.8s-7.5,16.8-16.8,16.8S931.5,1891.8,931.5,1882.5z"/>
<path class="st8" d="M1187.9,1882.5c0-9.3,7.5-16.8,16.8-16.8s16.8,7.5,16.8,16.8s-7.5,16.8-16.8,16.8S1187.9,1891.8,1187.9,1882.5z
	"/>
<path class="st9" d="M1419.7,580.6c0-22.9,18.5-41.4,41.4-41.4s41.4,18.5,41.4,41.4S1484,622,1461.2,622S1419.7,603.4,1419.7,580.6z
	"/>
<path class="st9" d="M1430.6,698.9c0-16.9,13.7-30.6,30.6-30.6s30.6,13.7,30.6,30.6s-13.7,30.6-30.6,30.6S1430.6,715.8,1430.6,698.9
	z"/>
<path class="st9" d="M1437.5,817.3c0-13.1,10.6-23.7,23.7-23.7s23.7,10.6,23.7,23.7s-10.6,23.7-23.7,23.7S1437.5,830.4,1437.5,817.3
	z"/>
<path class="st9" d="M1445.4,935.6c0-8.7,7.1-15.8,15.8-15.8s15.8,7.1,15.8,15.8c0,8.7-7.1,15.8-15.8,15.8
	S1445.4,944.4,1445.4,935.6z"/>
<path class="st9" d="M1445.4,1527.5c0-8.7,7.1-15.8,15.8-15.8s15.8,7.1,15.8,15.8s-7.1,15.8-15.8,15.8S1445.4,1536.2,1445.4,1527.5z
	"/>
<path class="st9" d="M1441.4,1882.5c0-10.9,8.8-19.7,19.7-19.7s19.7,8.8,19.7,19.7s-8.8,19.7-19.7,19.7S1441.4,1893.4,1441.4,1882.5
	z"/>
<path class="st9" d="M1439.5,2000.9c0-12,9.7-21.7,21.7-21.7c12,0,21.7,9.7,21.7,21.7c0,12-9.7,21.7-21.7,21.7
	C1449.2,2022.6,1439.5,2012.9,1439.5,2000.9z"/>
<path class="st9" d="M1441.4,2119.3c0-10.9,8.8-19.7,19.7-19.7s19.7,8.8,19.7,19.7s-8.8,19.7-19.7,19.7S1441.4,2130.2,1441.4,2119.3
	z"/>
<path class="st10" d="M1701.8,462.2c0-8.7,7.1-15.8,15.8-15.8s15.8,7.1,15.8,15.8s-7.1,15.8-15.8,15.8S1701.8,470.9,1701.8,462.2z"
	/>
<path class="st10" d="M1701.8,580.6c0-8.7,7.1-15.8,15.8-15.8s15.8,7.1,15.8,15.8s-7.1,15.8-15.8,15.8S1701.8,589.3,1701.8,580.6z"
	/>
<path class="st10" d="M1701.8,817.3c0-8.7,7.1-15.8,15.8-15.8s15.8,7.1,15.8,15.8c0,8.7-7.1,15.8-15.8,15.8S1701.8,826,1701.8,817.3
	z"/>
<path class="st10" d="M1701.8,935.6c0-8.7,7.1-15.8,15.8-15.8s15.8,7.1,15.8,15.8c0,8.7-7.1,15.8-15.8,15.8
	S1701.8,944.4,1701.8,935.6z"/>
<path class="st10" d="M1701.8,1054c0-8.7,7.1-15.8,15.8-15.8s15.8,7.1,15.8,15.8c0,8.7-7.1,15.8-15.8,15.8
	S1701.8,1062.7,1701.8,1054z"/>
<path class="st10" d="M1701.8,2356c0-8.7,7.1-15.8,15.8-15.8s15.8,7.1,15.8,15.8s-7.1,15.8-15.8,15.8S1701.8,2364.7,1701.8,2356z"/>
<path class="st10" d="M1701.8,2829.5c0-8.7,7.1-15.8,15.8-15.8s15.8,7.1,15.8,15.8s-7.1,15.8-15.8,15.8S1701.8,2838.2,1701.8,2829.5
	z"/>
<path class="st11" d="M1945.5,462.2c0-15.8,12.8-28.6,28.6-28.6c15.8,0,28.6,12.8,28.6,28.6s-12.8,28.6-28.6,28.6
	C1958.3,490.8,1945.5,478,1945.5,462.2z"/>
<path class="st11" d="M1945.5,580.6c0-15.8,12.8-28.6,28.6-28.6c15.8,0,28.6,12.8,28.6,28.6c0,15.8-12.8,28.6-28.6,28.6
	C1958.3,609.2,1945.5,596.3,1945.5,580.6z"/>
<path class="st11" d="M1944.5,698.9c0-16.3,13.2-29.6,29.6-29.6s29.6,13.2,29.6,29.6c0,16.3-13.2,29.6-29.6,29.6
	S1944.5,715.3,1944.5,698.9z"/>
<path class="st11" d="M1948.4,817.3c0-14.2,11.5-25.6,25.6-25.6c14.2,0,25.6,11.5,25.6,25.6c0,14.2-11.5,25.6-25.6,25.6
	C1959.9,842.9,1948.4,831.4,1948.4,817.3z"/>
<path class="st11" d="M1951.4,935.6c0-12.5,10.2-22.7,22.7-22.7c12.5,0,22.7,10.2,22.7,22.7c0,12.5-10.2,22.7-22.7,22.7
	C1961.5,958.3,1951.4,948.2,1951.4,935.6z"/>
<path class="st11" d="M1952.4,1054c0-12,9.7-21.7,21.7-21.7c12,0,21.7,9.7,21.7,21.7c0,12-9.7,21.7-21.7,21.7
	C1962.1,1075.7,1952.4,1066,1952.4,1054z"/>
<path class="st11" d="M1953.4,1172.4c0-11.4,9.3-20.7,20.7-20.7s20.7,9.3,20.7,20.7c0,11.4-9.3,20.7-20.7,20.7
	S1953.4,1183.8,1953.4,1172.4z"/>
<path class="st11" d="M1957.3,1764.2c0-9.3,7.5-16.8,16.8-16.8s16.8,7.5,16.8,16.8s-7.5,16.8-16.8,16.8S1957.3,1773.4,1957.3,1764.2
	z"/>
<path class="st11" d="M1956.3,1882.5c0-9.8,7.9-17.8,17.8-17.8c9.8,0,17.8,7.9,17.8,17.8c0,9.8-7.9,17.8-17.8,17.8
	C1964.3,1900.3,1956.3,1892.4,1956.3,1882.5z"/>
<path class="st11" d="M1956.3,2000.9c0-9.8,7.9-17.8,17.8-17.8c9.8,0,17.8,7.9,17.8,17.8s-7.9,17.8-17.8,17.8
	C1964.3,2018.7,1956.3,2010.7,1956.3,2000.9z"/>
<path class="st11" d="M1954.3,2119.3c0-10.9,8.8-19.7,19.7-19.7s19.7,8.8,19.7,19.7s-8.8,19.7-19.7,19.7
	S1954.3,2130.2,1954.3,2119.3z"/>
<path class="st11" d="M1957.3,2237.6c0-9.3,7.5-16.8,16.8-16.8s16.8,7.5,16.8,16.8s-7.5,16.8-16.8,16.8S1957.3,2246.9,1957.3,2237.6
	z"/>
<path class="st11" d="M1956.3,2356c0-9.8,7.9-17.8,17.8-17.8c9.8,0,17.8,7.9,17.8,17.8s-7.9,17.8-17.8,17.8
	C1964.3,2373.8,1956.3,2365.8,1956.3,2356z"/>
<path class="st11" d="M1957.3,2474.4c0-9.3,7.5-16.8,16.8-16.8s16.8,7.5,16.8,16.8c0,9.3-7.5,16.8-16.8,16.8
	S1957.3,2483.6,1957.3,2474.4z"/>
<path class="st11" d="M1958.3,2829.5c0-8.7,7.1-15.8,15.8-15.8c8.7,0,15.8,7.1,15.8,15.8s-7.1,15.8-15.8,15.8
	C1965.4,2845.2,1958.3,2838.2,1958.3,2829.5z"/>
<path class="st12" d="M2214.7,2829.5c0-8.7,7.1-15.8,15.8-15.8c8.7,0,15.8,7.1,15.8,15.8s-7.1,15.8-15.8,15.8
	C2221.8,2845.2,2214.7,2838.2,2214.7,2829.5z"/>
<rect x="2516.3" y="386.2" class="st1" width="70.3" height="35.2"/>
<rect x="2516.3" y="451.4" class="st0" width="70.3" height="35.2"/>
<rect x="2516.3" y="516.6" width="70.3" height="35.2"/>
<text transform="matrix(1 0 0 1 2612.9771 411.5599)" class="st2 st3 st13">Pre-Treaty</text>
<text transform="matrix(1 0 0 1 2612.9773 475.2086)" class="st2 st3 st13">CTBO Treaty Signed</text>
<text transform="matrix(1 0 0 1 2612.9773 542.2272)" class="st2 st3 st13">Post Treaty</text>
<g>
	<text transform="matrix(1 0 0 1 111.9424 161.9342)" class="st14 st15 st16">Comprehensive Nuclear-Test-Ban Treaty: Before and After</text>
</g>
</svg>
