<?xml version="1.0" encoding="utf-8"?>
<!-- Generator: Adobe Illustrator 23.1.1, SVG Export Plug-In . SVG Version: 6.00 Build 0)  -->
<svg version="1.1" id="Layer_1" xmlns="http://www.w3.org/2000/svg" xmlns:xlink="http://www.w3.org/1999/xlink" x="0px" y="0px"
	 viewBox="0 0 2369.4 1518.4" style="enable-background:new 0 0 2369.4 1518.4;" xml:space="preserve">
<style type="text/css">
	.st0{fill:#606060;}
	.st1{fill:#EAEAEA;}
	.st2{fill:#323232;}
	.st3{font-family:'ProximaNova-Bold';}
	.st4{font-size:48px;}
	.st5{fill:#1E1E1E;}
	.st6{font-family:'ProximaNova-Regular';}
	.st7{font-size:25.5025px;}
	.st8{fill:#66C2A5;}
	.st9{fill:#A6D854;}
	.st10{fill:#8DA0CB;}
	.st11{fill:#E5C494;}
	.st12{fill:#FFD92F;}
	.st13{fill:#FC8D62;}
	.st14{fill:#E78AC3;}
</style>
<g transform="scale(2,2)">
	<rect x="110.6" y="214.4" class="st0" width="837.7" height="60.3"/>
</g>
<g transform="scale(2,2)">
	<rect x="110.6" y="265.6" width="837.7" height="398.1"/>
</g>
<g transform="scale(2,2)">
	<rect x="110.6" y="108.5" class="st1" width="837.7" height="107.2"/>
</g>
<g>
	<g>
		<text transform="matrix(1 0 0 1 78.0699 127.2646)" class="st2 st3 st4">1994-2003: Who was involved in Nuclear Testing?</text>
	</g>
</g>
<g>
	<text transform="matrix(1 0 0 1 87.1783 262.7041)" class="st5 st6 st7">1994</text>
</g>
<g>
	<text transform="matrix(1 0 0 1 87.1783 372)" class="st5 st6 st7">1995</text>
</g>
<g>
	<text transform="matrix(1 0 0 1 87.1783 481.2969)" class="st5 st6 st7">1996</text>
</g>
<g>
	<text transform="matrix(1 0 0 1 87.1783 590.5938)" class="st5 st6 st7">1997</text>
</g>
<g>
	<text transform="matrix(1 0 0 1 87.1783 699.8906)" class="st5 st6 st7">1998</text>
</g>
<g>
	<text transform="matrix(1 0 0 1 87.1783 809.1875)" class="st5 st6 st7">1999</text>
</g>
<g>
	<text transform="matrix(1 0 0 1 87.1783 918.4839)" class="st5 st6 st7">2000</text>
</g>
<g>
	<text transform="matrix(1 0 0 1 87.1783 1027.7808)" class="st5 st6 st7">2001</text>
</g>
<g>
	<text transform="matrix(1 0 0 1 87.1783 1137.0776)" class="st5 st6 st7">2002</text>
</g>
<g>
	<text transform="matrix(1 0 0 1 87.1783 1246.3726)" class="st5 st6 st7">2003</text>
</g>
<g>
	<text transform="matrix(1 0 0 1 291.7146 1428.5347)" class="st5 st6 st7">China</text>
</g>
<g>
	<text transform="matrix(1 0 0 1 522.3386 1428.5347)" class="st5 st6 st7">France</text>
</g>
<g>
	<text transform="matrix(1 0 0 1 770.6111 1428.5347)" class="st5 st6 st7">India</text>
</g>
<g>
	<text transform="matrix(1 0 0 1 987.6188 1428.5347)" class="st5 st6 st7">Pakistan</text>
</g>
<g>
	<text transform="matrix(1 0 0 1 1234.9988 1428.5347)" class="st5 st6 st7">Russia</text>
</g>
<g>
	<text transform="matrix(1 0 0 1 1417.8572 1428.5347)" class="st5 st6 st7">United Kingdom</text>
</g>
<g>
	<text transform="matrix(1 0 0 1 1669.8918 1428.5347)" class="st5 st6 st7">United States</text>
</g>
<path class="st8" d="M299.4,262.7c0-13.6,11-24.6,24.6-24.6s24.6,11,24.6,24.6s-11,24.6-24.6,24.6S299.4,276.3,299.4,262.7z"/>
<path class="st8" d="M298.5,372c0-14.1,11.4-25.5,25.5-25.5s25.5,11.4,25.5,25.5s-11.4,25.5-25.5,25.5S298.5,386.1,298.5,372z"/>
<path class="st8" d="M299.4,481.3c0-13.6,11-24.6,24.6-24.6s24.6,11,24.6,24.6c0,13.6-11,24.6-24.6,24.6S299.4,494.9,299.4,481.3z"
	/>
<path class="st8" d="M300.3,809.2c0-13.1,10.6-23.7,23.7-23.7s23.7,10.6,23.7,23.7c0,13.1-10.6,23.7-23.7,23.7
	S300.3,822.3,300.3,809.2z"/>
<path class="st8" d="M297.6,1027.8c0-14.6,11.8-26.4,26.4-26.4s26.4,11.8,26.4,26.4c0,14.6-11.8,26.4-26.4,26.4
	S297.6,1042.4,297.6,1027.8z"/>
<path class="st9" d="M533.5,372c0-15.1,12.2-27.3,27.3-27.3s27.3,12.2,27.3,27.3c0,15.1-12.2,27.3-27.3,27.3S533.5,387.1,533.5,372z
	"/>
<path class="st9" d="M537.1,481.3c0-13.1,10.6-23.7,23.7-23.7s23.7,10.6,23.7,23.7S573.9,505,560.8,505S537.1,494.4,537.1,481.3z"/>
<path class="st10" d="M773,699.9c0-13.6,11-24.6,24.6-24.6s24.6,11,24.6,24.6s-11,24.6-24.6,24.6S773,713.5,773,699.9z"/>
<path class="st11" d="M1009.8,699.9c0-13.6,11-24.6,24.6-24.6c13.6,0,24.6,11,24.6,24.6s-11,24.6-24.6,24.6
	C1020.8,724.5,1009.8,713.5,1009.8,699.9z"/>
<path class="st12" d="M1247.5,372c0-13.1,10.6-23.7,23.7-23.7c13.1,0,23.7,10.6,23.7,23.7s-10.6,23.7-23.7,23.7
	C1258.1,395.7,1247.5,385.1,1247.5,372z"/>
<path class="st12" d="M1243.9,699.9c0-15.1,12.2-27.3,27.3-27.3c15.1,0,27.3,12.2,27.3,27.3s-12.2,27.3-27.3,27.3
	S1243.9,715,1243.9,699.9z"/>
<path class="st12" d="M1242.1,809.2c0-16.1,13-29.1,29.1-29.1c16.1,0,29.1,13,29.1,29.1s-13,29.1-29.1,29.1
	C1255.1,838.3,1242.1,825.3,1242.1,809.2z"/>
<path class="st12" d="M1243.9,918.5c0-15.1,12.2-27.3,27.3-27.3c15.1,0,27.3,12.2,27.3,27.3s-12.2,27.3-27.3,27.3
	S1243.9,933.6,1243.9,918.5z"/>
<path class="st13" d="M1484.4,1137.1c0-13.1,10.6-23.7,23.7-23.7c13.1,0,23.7,10.6,23.7,23.7c0,13.1-10.6,23.7-23.7,23.7
	C1495,1160.8,1484.4,1150.1,1484.4,1137.1z"/>
<path class="st14" d="M1720.3,590.6c0-13.6,11-24.6,24.6-24.6c13.6,0,24.6,11,24.6,24.6s-11,24.6-24.6,24.6
	C1731.3,615.2,1720.3,604.2,1720.3,590.6z"/>
<path class="st14" d="M1719.3,699.9c0-14.1,11.4-25.5,25.5-25.5c14.1,0,25.5,11.4,25.5,25.5s-11.4,25.5-25.5,25.5
	C1730.8,725.4,1719.3,714,1719.3,699.9z"/>
<path class="st14" d="M1719.3,809.2c0-14.1,11.4-25.5,25.5-25.5c14.1,0,25.5,11.4,25.5,25.5s-11.4,25.5-25.5,25.5
	C1730.8,834.7,1719.3,823.3,1719.3,809.2z"/>
<path class="st14" d="M1717.5,918.5c0-15.1,12.2-27.3,27.3-27.3s27.3,12.2,27.3,27.3s-12.2,27.3-27.3,27.3
	C1729.8,945.8,1717.5,933.6,1717.5,918.5z"/>
<path class="st14" d="M1720.3,1027.8c0-13.6,11-24.6,24.6-24.6c13.6,0,24.6,11,24.6,24.6c0,13.6-11,24.6-24.6,24.6
	C1731.3,1052.4,1720.3,1041.4,1720.3,1027.8z"/>
<path class="st14" d="M1719.3,1137.1c0-14.1,11.4-25.5,25.5-25.5c14.1,0,25.5,11.4,25.5,25.5c0,14.1-11.4,25.5-25.5,25.5
	C1730.8,1162.6,1719.3,1151.1,1719.3,1137.1z"/>
<path class="st14" d="M1720.3,1246.4c0-13.6,11-24.6,24.6-24.6c13.6,0,24.6,11,24.6,24.6c0,13.6-11,24.6-24.6,24.6
	C1731.3,1271,1720.3,1259.9,1720.3,1246.4z"/>
<rect x="1987.8" y="663.8" class="st1" width="70.3" height="35.2"/>
<rect x="1987.8" y="729" class="st0" width="70.3" height="35.2"/>
<rect x="1987.8" y="794.2" width="70.3" height="35.2"/>
<text transform="matrix(1 0 0 1 2084.4333 689.2012)" class="st5 st6 st7">Pre-Treaty</text>
<text transform="matrix(1 0 0 1 2084.4336 752.8499)" class="st5 st6 st7">CTBO Treaty Signed</text>
<text transform="matrix(1 0 0 1 2084.4336 819.8685)" class="st5 st6 st7">Post Treaty</text>
</svg>
