<?xml version="1.0" encoding="utf-8"?>
<!-- Generator: Adobe Illustrator 23.1.1, SVG Export Plug-In . SVG Version: 6.00 Build 0)  -->
<svg version="1.1" id="Layer_1" xmlns="http://www.w3.org/2000/svg" xmlns:xlink="http://www.w3.org/1999/xlink" x="0px" y="0px"
	 viewBox="0 0 2506.9 3493.3" style="enable-background:new 0 0 2506.9 3493.3;" xml:space="preserve">
<style type="text/css">
	.st0{fill:#606060;}
	.st1{fill:#EAEAEA;}
	.st2{fill:#1E1E1E;}
	.st3{font-family:'ProximaNova-Regular';}
	.st4{font-size:27.6181px;}
	.st5{fill:#66C2A5;}
	.st6{fill:#A6D854;}
	.st7{fill:#8DA0CB;}
	.st8{fill:#E5C494;}
	.st9{fill:#FFD92F;}
	.st10{fill:#FC8D62;}
	.st11{fill:#E78AC3;}
	.st12{fill:#B3B3B3;}
	.st13{fill:#323232;}
	.st14{font-family:'ProximaNova-Bold';}
	.st15{font-size:48px;}
	.st16{fill:none;stroke:#000000;stroke-miterlimit:10;}
	.st17{fill:none;}
	.st18{font-size:35.5px;}
	.st19{font-size:25.5025px;}
</style>
<g>
	<rect x="307.8" y="2169.3" width="2079.6" height="1189.5"/>
	<rect x="307.8" y="2048.7" class="st0" width="2079.6" height="120.6"/>
	<rect x="307.8" y="850.8" class="st1" width="2079.6" height="1197.9"/>
	<g>
		<text transform="matrix(1 0 0 1 120.8372 926.4252)" class="st2 st3 st4">1986</text>
	</g>
	<g>
		<text transform="matrix(1 0 0 1 122.9353 1044.7886)" class="st2 st3 st4">1987</text>
	</g>
	<g>
		<text transform="matrix(1 0 0 1 121.1125 1163.1519)" class="st2 st3 st4">1988</text>
	</g>
	<g>
		<text transform="matrix(1 0 0 1 120.8372 1281.5151)" class="st2 st3 st4">1989</text>
	</g>
	<g>
		<text transform="matrix(1 0 0 1 119.9807 1399.8784)" class="st2 st3 st4">1990</text>
	</g>
	<g>
		<text transform="matrix(1 0 0 1 127.5203 1518.2417)" class="st2 st3 st4">1991</text>
	</g>
	<g>
		<text transform="matrix(1 0 0 1 120.6438 1636.605)" class="st2 st3 st4">1992</text>
	</g>
	<g>
		<text transform="matrix(1 0 0 1 121.5002 1754.9692)" class="st2 st3 st4">1993</text>
	</g>
	<g>
		<text transform="matrix(1 0 0 1 121.4719 1873.3325)" class="st2 st3 st4">1994</text>
	</g>
	<g>
		<text transform="matrix(1 0 0 1 120.5881 1991.6958)" class="st2 st3 st4">1995</text>
	</g>
	<g>
		<text transform="matrix(1 0 0 1 120.5608 2110.0591)" class="st2 st3 st4">1996</text>
	</g>
	<g>
		<text transform="matrix(1 0 0 1 122.6594 2228.4224)" class="st2 st3 st4">1997</text>
	</g>
	<g>
		<text transform="matrix(1 0 0 1 120.8372 2346.7856)" class="st2 st3 st4">1998</text>
	</g>
	<g>
		<text transform="matrix(1 0 0 1 120.5608 2465.1489)" class="st2 st3 st4">1999</text>
	</g>
	<g>
		<text transform="matrix(1 0 0 1 111.9426 2583.5122)" class="st2 st3 st4">2000</text>
	</g>
	<g>
		<text transform="matrix(1 0 0 1 119.4827 2701.8755)" class="st2 st3 st4">2001</text>
	</g>
	<g>
		<text transform="matrix(1 0 0 1 112.6057 2820.2388)" class="st2 st3 st4">2002</text>
	</g>
	<g>
		<text transform="matrix(1 0 0 1 113.4617 2938.6021)" class="st2 st3 st4">2003</text>
	</g>
	<g>
		<text transform="matrix(1 0 0 1 113.4348 3056.9653)" class="st2 st3 st4">2004</text>
	</g>
	<g>
		<text transform="matrix(1 0 0 1 112.5505 3175.3286)" class="st2 st3 st4">2005</text>
	</g>
	<g>
		<text transform="matrix(1 0 0 1 112.5237 3293.6919)" class="st2 st3 st4">2006</text>
	</g>
	<g>
		<text transform="matrix(1 0 0 1 400.3928 808.062)" class="st2 st3 st4">China</text>
	</g>
	<g>
		<text transform="matrix(1 0 0 1 650.1487 808.062)" class="st2 st3 st4">France</text>
	</g>
	<g>
		<text transform="matrix(1 0 0 1 919.0168 808.062)" class="st2 st3 st4">India</text>
	</g>
	<g>
		<text transform="matrix(1 0 0 1 1154.0266 808.062)" class="st2 st3 st4">Pakistan</text>
	</g>
	<g>
		<text transform="matrix(1 0 0 1 1421.928 808.062)" class="st2 st3 st4">Russia</text>
	</g>
	<g>
		<text transform="matrix(1 0 0 1 1619.9563 808.062)" class="st2 st3 st4">United Kingdom</text>
	</g>
	<g>
		<text transform="matrix(1 0 0 1 1892.8977 808.062)" class="st2 st3 st4">United States</text>
	</g>
	<g>
		<text transform="matrix(1 0 0 1 2157.7063 808.062)" class="st2 st3 st4">North Korea</text>
	</g>
	<path class="st5" d="M419.6,1044.8c0-8.7,7.1-15.8,15.8-15.8s15.8,7.1,15.8,15.8c0,8.7-7.1,15.8-15.8,15.8
		S419.6,1053.5,419.6,1044.8z"/>
	<path class="st5" d="M419.6,1163.1c0-8.7,7.1-15.8,15.8-15.8s15.8,7.1,15.8,15.8c0,8.7-7.1,15.8-15.8,15.8
		S419.6,1171.8,419.6,1163.1z"/>
	<path class="st5" d="M418.6,1399.8c0-9.3,7.5-16.8,16.8-16.8s16.8,7.5,16.8,16.8s-7.5,16.8-16.8,16.8S418.6,1409.1,418.6,1399.8z"
		/>
	<path class="st5" d="M418.6,1636.6c0-9.3,7.5-16.8,16.8-16.8s16.8,7.5,16.8,16.8s-7.5,16.8-16.8,16.8S418.6,1645.8,418.6,1636.6z"
		/>
	<path class="st5" d="M418.6,1754.9c0-9.3,7.5-16.8,16.8-16.8s16.8,7.5,16.8,16.8s-7.5,16.8-16.8,16.8S418.6,1764.2,418.6,1754.9z"
		/>
	<path class="st5" d="M418.6,1873.3c0-9.3,7.5-16.8,16.8-16.8s16.8,7.5,16.8,16.8s-7.5,16.8-16.8,16.8S418.6,1882.6,418.6,1873.3z"
		/>
	<path class="st5" d="M417.6,1991.7c0-9.8,7.9-17.8,17.8-17.8s17.8,7.9,17.8,17.8s-7.9,17.8-17.8,17.8S417.6,2001.5,417.6,1991.7z"
		/>
	<path class="st5" d="M418.6,2110c0-9.3,7.5-16.8,16.8-16.8s16.8,7.5,16.8,16.8s-7.5,16.8-16.8,16.8S418.6,2119.3,418.6,2110z"/>
	<path class="st5" d="M419.6,2465.1c0-8.7,7.1-15.8,15.8-15.8s15.8,7.1,15.8,15.8s-7.1,15.8-15.8,15.8S419.6,2473.8,419.6,2465.1z"
		/>
	<path class="st5" d="M416.6,2701.8c0-10.4,8.4-18.7,18.7-18.7s18.7,8.4,18.7,18.7c0,10.4-8.4,18.7-18.7,18.7
		S416.6,2712.2,416.6,2701.8z"/>
	<path class="st6" d="M669.1,926.4c0-12.5,10.2-22.7,22.7-22.7s22.7,10.2,22.7,22.7s-10.2,22.7-22.7,22.7
		C679.3,949.1,669.1,938.9,669.1,926.4z"/>
	<path class="st6" d="M669.1,1044.8c0-12.5,10.2-22.7,22.7-22.7s22.7,10.2,22.7,22.7s-10.2,22.7-22.7,22.7
		C679.3,1067.4,669.1,1057.3,669.1,1044.8z"/>
	<path class="st6" d="M669.1,1163.1c0-12.5,10.2-22.7,22.7-22.7s22.7,10.2,22.7,22.7s-10.2,22.7-22.7,22.7
		S669.1,1175.6,669.1,1163.1z"/>
	<path class="st6" d="M668.1,1281.5c0-13.1,10.6-23.7,23.7-23.7s23.7,10.6,23.7,23.7s-10.6,23.7-23.7,23.7
		S668.1,1294.6,668.1,1281.5z"/>
	<path class="st6" d="M671.1,1399.8c0-11.4,9.3-20.7,20.7-20.7s20.7,9.3,20.7,20.7s-9.3,20.7-20.7,20.7S671.1,1411.3,671.1,1399.8z"
		/>
	<path class="st6" d="M671.1,1518.2c0-11.4,9.3-20.7,20.7-20.7s20.7,9.3,20.7,20.7c0,11.4-9.3,20.7-20.7,20.7
		S671.1,1529.6,671.1,1518.2z"/>
	<path class="st6" d="M672.1,1991.7c0-10.9,8.8-19.7,19.7-19.7s19.7,8.8,19.7,19.7s-8.8,19.7-19.7,19.7S672.1,2002.6,672.1,1991.7z"
		/>
	<path class="st6" d="M676,2110c0-8.7,7.1-15.8,15.8-15.8s15.8,7.1,15.8,15.8s-7.1,15.8-15.8,15.8S676,2118.7,676,2110z"/>
	<path class="st7" d="M931.5,2346.7c0-9.3,7.5-16.8,16.8-16.8s16.8,7.5,16.8,16.8s-7.5,16.8-16.8,16.8S931.5,2356,931.5,2346.7z"/>
	<path class="st8" d="M1187.9,2346.7c0-9.3,7.5-16.8,16.8-16.8s16.8,7.5,16.8,16.8s-7.5,16.8-16.8,16.8S1187.9,2356,1187.9,2346.7z"
		/>
	<path class="st9" d="M1419.7,1044.8c0-22.9,18.5-41.4,41.4-41.4s41.4,18.5,41.4,41.4s-18.5,41.4-41.3,41.4
		S1419.7,1067.6,1419.7,1044.8z"/>
	<path class="st9" d="M1430.6,1163.1c0-16.9,13.7-30.6,30.6-30.6s30.6,13.7,30.6,30.6s-13.7,30.6-30.6,30.6
		S1430.6,1180,1430.6,1163.1z"/>
	<path class="st9" d="M1437.5,1281.5c0-13.1,10.6-23.7,23.7-23.7s23.7,10.6,23.7,23.7s-10.6,23.7-23.7,23.7
		S1437.5,1294.6,1437.5,1281.5z"/>
	<path class="st9" d="M1445.4,1399.8c0-8.7,7.1-15.8,15.8-15.8s15.8,7.1,15.8,15.8c0,8.7-7.1,15.8-15.8,15.8
		S1445.4,1408.6,1445.4,1399.8z"/>
	<path class="st9" d="M1445.4,1991.7c0-8.7,7.1-15.8,15.8-15.8s15.8,7.1,15.8,15.8s-7.1,15.8-15.8,15.8S1445.4,2000.4,1445.4,1991.7
		z"/>
	<path class="st9" d="M1441.4,2346.7c0-10.9,8.8-19.7,19.7-19.7s19.7,8.8,19.7,19.7s-8.8,19.7-19.7,19.7
		S1441.4,2357.6,1441.4,2346.7z"/>
	<path class="st9" d="M1439.5,2465.1c0-12,9.7-21.7,21.7-21.7s21.7,9.7,21.7,21.7s-9.7,21.7-21.7,21.7S1439.5,2477.1,1439.5,2465.1z
		"/>
	<path class="st9" d="M1441.4,2583.5c0-10.9,8.8-19.7,19.7-19.7s19.7,8.8,19.7,19.7s-8.8,19.7-19.7,19.7
		S1441.4,2594.4,1441.4,2583.5z"/>
	<path class="st10" d="M1701.8,926.4c0-8.7,7.1-15.8,15.8-15.8s15.8,7.1,15.8,15.8s-7.1,15.8-15.8,15.8S1701.8,935.1,1701.8,926.4z"
		/>
	<path class="st10" d="M1701.8,1044.8c0-8.7,7.1-15.8,15.8-15.8s15.8,7.1,15.8,15.8c0,8.7-7.1,15.8-15.8,15.8
		S1701.8,1053.5,1701.8,1044.8z"/>
	<path class="st10" d="M1701.8,1281.5c0-8.7,7.1-15.8,15.8-15.8s15.8,7.1,15.8,15.8c0,8.7-7.1,15.8-15.8,15.8
		S1701.8,1290.2,1701.8,1281.5z"/>
	<path class="st10" d="M1701.8,1399.8c0-8.7,7.1-15.8,15.8-15.8s15.8,7.1,15.8,15.8c0,8.7-7.1,15.8-15.8,15.8
		S1701.8,1408.6,1701.8,1399.8z"/>
	<path class="st10" d="M1701.8,1518.2c0-8.7,7.1-15.8,15.8-15.8s15.8,7.1,15.8,15.8c0,8.7-7.1,15.8-15.8,15.8
		S1701.8,1526.9,1701.8,1518.2z"/>
	<path class="st10" d="M1701.8,2820.2c0-8.7,7.1-15.8,15.8-15.8s15.8,7.1,15.8,15.8s-7.1,15.8-15.8,15.8
		S1701.8,2828.9,1701.8,2820.2z"/>
	<path class="st10" d="M1701.8,3293.7c0-8.7,7.1-15.8,15.8-15.8s15.8,7.1,15.8,15.8s-7.1,15.8-15.8,15.8
		S1701.8,3302.4,1701.8,3293.7z"/>
	<path class="st11" d="M1945.5,926.4c0-15.8,12.8-28.6,28.6-28.6c15.8,0,28.6,12.8,28.6,28.6s-12.8,28.6-28.6,28.6
		S1945.5,942.2,1945.5,926.4z"/>
	<path class="st11" d="M1945.5,1044.8c0-15.8,12.8-28.6,28.6-28.6c15.8,0,28.6,12.8,28.6,28.6c0,15.8-12.8,28.6-28.6,28.6
		S1945.5,1060.5,1945.5,1044.8z"/>
	<path class="st11" d="M1944.5,1163.1c0-16.3,13.2-29.6,29.6-29.6s29.6,13.2,29.6,29.6c0,16.3-13.2,29.6-29.6,29.6
		S1944.5,1179.5,1944.5,1163.1z"/>
	<path class="st11" d="M1948.4,1281.5c0-14.2,11.5-25.6,25.6-25.6c14.2,0,25.6,11.5,25.6,25.6c0,14.2-11.5,25.6-25.6,25.6
		S1948.4,1295.6,1948.4,1281.5z"/>
	<path class="st11" d="M1951.4,1399.8c0-12.5,10.2-22.7,22.7-22.7s22.7,10.2,22.7,22.7s-10.2,22.7-22.7,22.7
		C1961.5,1422.5,1951.4,1412.4,1951.4,1399.8z"/>
	<path class="st11" d="M1952.4,1518.2c0-12,9.7-21.7,21.7-21.7s21.7,9.7,21.7,21.7s-9.7,21.7-21.7,21.7S1952.4,1530.2,1952.4,1518.2
		z"/>
	<path class="st11" d="M1953.4,1636.6c0-11.4,9.3-20.7,20.7-20.7s20.7,9.3,20.7,20.7c0,11.4-9.3,20.7-20.7,20.7
		S1953.4,1648,1953.4,1636.6z"/>
	<path class="st11" d="M1957.3,2228.4c0-9.3,7.5-16.8,16.8-16.8s16.8,7.5,16.8,16.8s-7.5,16.8-16.8,16.8
		S1957.3,2237.6,1957.3,2228.4z"/>
	<path class="st11" d="M1956.3,2346.7c0-9.8,7.9-17.8,17.8-17.8c9.8,0,17.8,7.9,17.8,17.8c0,9.8-7.9,17.8-17.8,17.8
		C1964.3,2364.5,1956.3,2356.6,1956.3,2346.7z"/>
	<path class="st11" d="M1956.3,2465.1c0-9.8,7.9-17.8,17.8-17.8c9.8,0,17.8,7.9,17.8,17.8c0,9.9-7.9,17.8-17.8,17.8
		C1964.3,2482.9,1956.3,2474.9,1956.3,2465.1z"/>
	<path class="st11" d="M1954.3,2583.5c0-10.9,8.8-19.7,19.7-19.7s19.7,8.8,19.7,19.7s-8.8,19.7-19.7,19.7
		S1954.3,2594.4,1954.3,2583.5z"/>
	<path class="st11" d="M1957.3,2701.8c0-9.3,7.5-16.8,16.8-16.8s16.8,7.5,16.8,16.8s-7.5,16.8-16.8,16.8
		S1957.3,2711.1,1957.3,2701.8z"/>
	<path class="st11" d="M1956.3,2820.2c0-9.8,7.9-17.8,17.8-17.8c9.8,0,17.8,7.9,17.8,17.8s-7.9,17.8-17.8,17.8
		C1964.3,2838,1956.3,2830,1956.3,2820.2z"/>
	<path class="st11" d="M1957.3,2938.6c0-9.3,7.5-16.8,16.8-16.8s16.8,7.5,16.8,16.8s-7.5,16.8-16.8,16.8
		S1957.3,2947.8,1957.3,2938.6z"/>
	<path class="st11" d="M1958.3,3293.7c0-8.7,7.1-15.8,15.8-15.8c8.7,0,15.8,7.1,15.8,15.8s-7.1,15.8-15.8,15.8
		C1965.4,3309.4,1958.3,3302.4,1958.3,3293.7z"/>
	<path class="st12" d="M2214.7,3293.7c0-8.7,7.1-15.8,15.8-15.8s15.8,7.1,15.8,15.8s-7.1,15.8-15.8,15.8
		C2221.8,3309.4,2214.7,3302.4,2214.7,3293.7z"/>
</g>
<g>
	<text transform="matrix(1 0 0 1 117.9424 165.567)" class="st13 st14 st15">Comprehensive Nuclear-Test-Ban Treaty: Before and After</text>
</g>
<rect x="121.3" y="511.9" class="st16" width="2266" height="142.1"/>
<rect x="121.1" y="225.6" class="st17" width="2266.3" height="211.8"/>
<text transform="matrix(1 0 0 1 121.1123 249.2427)" class="st2 st3 st18">“The</text>
<text transform="matrix(1 0 0 1 194.8123 249.2427)" class="st2 st3 st18"> </text>
<text transform="matrix(1 0 0 1 203.8123 249.2427)" class="st2 st3 st18">Comprehensive</text>
<text transform="matrix(1 0 0 1 449.9123 249.2427)" class="st2 st3 st18"> </text>
<text transform="matrix(1 0 0 1 458.9123 249.2427)" class="st2 st3 st18">Nuclear-Test-Ban</text>
<text transform="matrix(1 0 0 1 728.6123 249.2427)" class="st2 st3 st18"> </text>
<text transform="matrix(1 0 0 1 737.7123 249.2427)" class="st2 st3 st18">Treaty</text>
<text transform="matrix(1 0 0 1 836.2123 249.2427)" class="st2 st3 st18"> </text>
<text transform="matrix(1 0 0 1 845.2123 249.2427)" class="st2 st3 st18">(CTBT)</text>
<text transform="matrix(1 0 0 1 949.6123 249.2427)" class="st2 st3 st18"> </text>
<text transform="matrix(1 0 0 1 958.6123 249.2427)" class="st2 st3 st18">is</text>
<text transform="matrix(1 0 0 1 983.1123 249.2427)" class="st2 st3 st18"> </text>
<text transform="matrix(1 0 0 1 992.2123 249.2427)" class="st2 st3 st18">a</text>
<text transform="matrix(1 0 0 1 1010.9123 249.2427)" class="st2 st3 st18"> </text>
<text transform="matrix(1 0 0 1 1019.9123 249.2427)" class="st2 st3 st18">multilateral</text>
<text transform="matrix(1 0 0 1 1190.1123 249.2427)" class="st2 st3 st18"> </text>
<text transform="matrix(1 0 0 1 1199.1123 249.2427)" class="st2 st3 st18">treaty</text>
<text transform="matrix(1 0 0 1 1287.8123 249.2427)" class="st2 st3 st18"> </text>
<text transform="matrix(1 0 0 1 1296.8123 249.2427)" class="st2 st3 st18">that</text>
<text transform="matrix(1 0 0 1 1356.0123 249.2427)" class="st2 st3 st18"> </text>
<text transform="matrix(1 0 0 1 1365.1123 249.2427)" class="st2 st3 st18">bans</text>
<text transform="matrix(1 0 0 1 1440.3123 249.2427)" class="st2 st3 st18"> </text>
<text transform="matrix(1 0 0 1 1449.3123 249.2427)" class="st2 st3 st18">all</text>
<text transform="matrix(1 0 0 1 1484.0123 249.2427)" class="st2 st3 st18"> </text>
<text transform="matrix(1 0 0 1 1493.0123 249.2427)" class="st2 st3 st18">nuclear</text>
<text transform="matrix(1 0 0 1 1608.1123 249.2427)" class="st2 st3 st18"> </text>
<text transform="matrix(1 0 0 1 1617.1123 249.2427)" class="st2 st3 st18">explosions,</text>
<text transform="matrix(1 0 0 1 1792.1123 249.2427)" class="st2 st3 st18"> </text>
<text transform="matrix(1 0 0 1 1801.1123 249.2427)" class="st2 st3 st18">for</text>
<text transform="matrix(1 0 0 1 1843.2123 249.2427)" class="st2 st3 st18"> </text>
<text transform="matrix(1 0 0 1 1852.2123 249.2427)" class="st2 st3 st18">both</text>
<text transform="matrix(1 0 0 1 1923.0123 249.2427)" class="st2 st3 st18"> </text>
<text transform="matrix(1 0 0 1 1932.0123 249.2427)" class="st2 st3 st18">civilian</text>
<text transform="matrix(1 0 0 1 2037.2123 249.2427)" class="st2 st3 st18"> </text>
<text transform="matrix(1 0 0 1 2046.2123 249.2427)" class="st2 st3 st18">and</text>
<text transform="matrix(1 0 0 1 2104.9124 249.2427)" class="st2 st3 st18"> </text>
<text transform="matrix(1 0 0 1 2114.0122 249.2427)" class="st2 st3 st18">military</text>
<text transform="matrix(1 0 0 1 2224.9124 249.2427)" class="st2 st3 st18"> </text>
<text transform="matrix(1 0 0 1 2233.9124 249.2427)" class="st2 st3 st18">purposes, </text>
<text transform="matrix(1 0 0 1 121.1123 291.8428)" class="st2 st3 st18">in</text>
<text transform="matrix(1 0 0 1 148.6123 291.8428)" class="st2 st3 st18"> </text>
<text transform="matrix(1 0 0 1 156.3123 291.8428)" class="st2 st3 st18">all</text>
<text transform="matrix(1 0 0 1 191.0123 291.8428)" class="st2 st3 st18"> </text>
<text transform="matrix(1 0 0 1 198.7123 291.8428)" class="st2 st3 st18">environments.</text>
<text transform="matrix(1 0 0 1 418.6123 291.8428)" class="st2 st3 st18"> </text>
<text transform="matrix(1 0 0 1 426.2123 291.8428)" class="st2 st3 st18">It</text>
<text transform="matrix(1 0 0 1 445.2123 291.8428)" class="st2 st3 st18"> </text>
<text transform="matrix(1 0 0 1 452.9123 291.8428)" class="st2 st3 st18">was</text>
<text transform="matrix(1 0 0 1 514.1123 291.8428)" class="st2 st3 st18"> </text>
<text transform="matrix(1 0 0 1 521.8123 291.8428)" class="st2 st3 st18">adopted</text>
<text transform="matrix(1 0 0 1 652.5123 291.8428)" class="st2 st3 st18"> </text>
<text transform="matrix(1 0 0 1 660.1123 291.8428)" class="st2 st3 st18">by</text>
<text transform="matrix(1 0 0 1 698.0123 291.8428)" class="st2 st3 st18"> </text>
<text transform="matrix(1 0 0 1 705.6123 291.8428)" class="st2 st3 st18">the</text>
<text transform="matrix(1 0 0 1 755.7123 291.8428)" class="st2 st3 st18"> </text>
<text transform="matrix(1 0 0 1 763.4123 291.8428)" class="st2 st3 st18">United</text>
<text transform="matrix(1 0 0 1 866.6123 291.8428)" class="st2 st3 st18"> </text>
<text transform="matrix(1 0 0 1 874.3123 291.8428)" class="st2 st3 st18">Nations</text>
<text transform="matrix(1 0 0 1 992.9123 291.8428)" class="st2 st3 st18"> </text>
<text transform="matrix(1 0 0 1 1000.6123 291.8428)" class="st2 st3 st18">General</text>
<text transform="matrix(1 0 0 1 1123.9122 291.8428)" class="st2 st3 st18"> </text>
<text transform="matrix(1 0 0 1 1131.5123 291.8428)" class="st2 st3 st18">Assembly</text>
<text transform="matrix(1 0 0 1 1282.4124 291.8428)" class="st2 st3 st18"> </text>
<text transform="matrix(1 0 0 1 1290.1123 291.8428)" class="st2 st3 st18">on</text>
<text transform="matrix(1 0 0 1 1329.9124 291.8428)" class="st2 st3 st18"> </text>
<text transform="matrix(1 0 0 1 1337.6123 291.8428)" class="st2 st3 st18">10</text>
<text transform="matrix(1 0 0 1 1371.4124 291.8428)" class="st2 st3 st18"> </text>
<text transform="matrix(1 0 0 1 1379.1123 291.8428)" class="st2 st3 st18">September</text>
<text transform="matrix(1 0 0 1 1551.5123 291.8428)" class="st2 st3 st18"> </text>
<text transform="matrix(1 0 0 1 1559.2123 291.8428)" class="st2 st3 st18">1996</text>
<text transform="matrix(1 0 0 1 1634.1123 291.8428)" class="st2 st3 st18"> </text>
<text transform="matrix(1 0 0 1 1641.8123 291.8428)" class="st2 st3 st18">but</text>
<text transform="matrix(1 0 0 1 1692.2123 291.8428)" class="st2 st3 st18"> </text>
<text transform="matrix(1 0 0 1 1699.9124 291.8428)" class="st2 st3 st18">has</text>
<text transform="matrix(1 0 0 1 1754.7123 291.8428)" class="st2 st3 st18"> </text>
<text transform="matrix(1 0 0 1 1762.4124 291.8428)" class="st2 st3 st18">not</text>
<text transform="matrix(1 0 0 1 1812.7123 291.8428)" class="st2 st3 st18"> </text>
<text transform="matrix(1 0 0 1 1820.4124 291.8428)" class="st2 st3 st18">entered</text>
<text transform="matrix(1 0 0 1 1942.5123 291.8428)" class="st2 st3 st18"> </text>
<text transform="matrix(1 0 0 1 1950.2123 291.8428)" class="st2 st3 st18">into</text>
<text transform="matrix(1 0 0 1 2008.5123 291.8428)" class="st2 st3 st18"> </text>
<text transform="matrix(1 0 0 1 2016.2123 291.8428)" class="st2 st3 st18">force.”</text>
<text transform="matrix(1 0 0 1 2117.8123 291.8428)" class="st2 st3 st18"> </text>
<text transform="matrix(1 0 0 1 2125.5122 291.8428)" class="st2 st3 st18">This</text>
<text transform="matrix(1 0 0 1 2189.8123 291.8428)" class="st2 st3 st18"> </text>
<text transform="matrix(1 0 0 1 2197.5122 291.8428)" class="st2 st3 st18">visualization </text>
<text transform="matrix(1 0 0 1 121.1123 334.4426)" class="st2 st3 st18">highlights the active tests in a 10 year span before and after the treaty was signed. Is there a lull in testing due to the treaty? Who are the countries</text>
<text transform="matrix(1 0 0 1 121.1123 377.0427)" class="st2 st3 st18">actively involved post treaty? </text>
<g>
	<rect x="872.8" y="565.3" class="st1" width="70.3" height="35.2"/>
	<rect x="1299.3" y="565.3" class="st0" width="70.3" height="35.2"/>
	<rect x="1829.5" y="565.3" width="70.3" height="35.2"/>
	<text transform="matrix(1 0 0 1 969.4989 600.5762)" class="st2 st3 st19">Pre-Treaty</text>
	<text transform="matrix(1 0 0 1 1395.969 600.0248)" class="st2 st3 st19">CTBT Treaty Signed</text>
	<text transform="matrix(1 0 0 1 1926.1384 600.8434)" class="st2 st3 st19">Post Treaty</text>
	<path d="M458.6,584.9c0-8.7,7.1-15.8,15.8-15.8s15.8,7.1,15.8,15.8s-7.1,15.8-15.8,15.8S458.6,593.6,458.6,584.9z"/>
	<text transform="matrix(1 0 0 1 518.4899 600.5762)" class="st2 st3 st19">Nuclear Test</text>
</g>
</svg>
