<?xml version="1.0" encoding="utf-8"?>
<!-- Generator: Adobe Illustrator 23.1.1, SVG Export Plug-In . SVG Version: 6.00 Build 0)  -->
<svg version="1.1" id="Layer_1" xmlns="http://www.w3.org/2000/svg" xmlns:xlink="http://www.w3.org/1999/xlink" x="0px" y="0px"
	 viewBox="0 0 2800 2800" style="enable-background:new 0 0 2800 2800;" xml:space="preserve">
<style type="text/css">
	.st0{fill:#1E1E1E;}
	.st1{font-family:'CourierNewPSMT';}
	.st2{font-size:26.4569px;}
</style>
<g>
	<text transform="matrix(1 0 0 1 145.5781 249.873)" class="st0 st1 st2">1986</text>
</g>
<g>
	<text transform="matrix(1 0 0 1 145.5781 363.2598)" class="st0 st1 st2">1987</text>
</g>
<g>
	<text transform="matrix(1 0 0 1 145.5781 476.6465)" class="st0 st1 st2">1988</text>
</g>
<g>
	<text transform="matrix(1 0 0 1 145.5781 590.0332)" class="st0 st1 st2">1989</text>
</g>
<g>
	<text transform="matrix(1 0 0 1 145.5781 703.4199)" class="st0 st1 st2">1990</text>
</g>
<g>
	<text transform="matrix(1 0 0 1 145.5781 816.8066)" class="st0 st1 st2">1991</text>
</g>
<g>
	<text transform="matrix(1 0 0 1 145.5781 930.1934)" class="st0 st1 st2">1992</text>
</g>
<g>
	<text transform="matrix(1 0 0 1 145.5781 1043.5801)" class="st0 st1 st2">1993</text>
</g>
<g>
	<text transform="matrix(1 0 0 1 145.5781 1156.9668)" class="st0 st1 st2">1994</text>
</g>
<g>
	<text transform="matrix(1 0 0 1 145.5781 1270.3535)" class="st0 st1 st2">1995</text>
</g>
<g>
	<text transform="matrix(1 0 0 1 145.5781 1383.7393)" class="st0 st1 st2">1996</text>
</g>
<g>
	<text transform="matrix(1 0 0 1 145.5781 1497.126)" class="st0 st1 st2">1997</text>
</g>
<g>
	<text transform="matrix(1 0 0 1 145.5781 1610.5127)" class="st0 st1 st2">1998</text>
</g>
<g>
	<text transform="matrix(1 0 0 1 145.5781 1723.8994)" class="st0 st1 st2">1999</text>
</g>
<g>
	<text transform="matrix(1 0 0 1 145.5781 1837.2861)" class="st0 st1 st2">2000</text>
</g>
<g>
	<text transform="matrix(1 0 0 1 145.5781 1950.6729)" class="st0 st1 st2">2001</text>
</g>
<g>
	<text transform="matrix(1 0 0 1 145.5781 2064.0596)" class="st0 st1 st2">2002</text>
</g>
<g>
	<text transform="matrix(1 0 0 1 145.5781 2177.4463)" class="st0 st1 st2">2003</text>
</g>
<g>
	<text transform="matrix(1 0 0 1 145.5781 2290.833)" class="st0 st1 st2">2004</text>
</g>
<g>
	<text transform="matrix(1 0 0 1 145.5781 2404.2197)" class="st0 st1 st2">2005</text>
</g>
<g>
	<text transform="matrix(1 0 0 1 145.5781 2517.6064)" class="st0 st1 st2">2006</text>
</g>
<g>
	<text transform="matrix(1 0 0 1 407.126 2628.1587)" class="st0 st1 st2">France</text>
</g>
<g>
	<text transform="matrix(1 0 0 1 660.7354 2628.1587)" class="st0 st1 st2">India</text>
</g>
<g>
	<text transform="matrix(1 0 0 1 882.5918 2628.1587)" class="st0 st1 st2">Pakistan</text>
</g>
<g>
	<text transform="matrix(1 0 0 1 1144.1396 2628.1587)" class="st0 st1 st2">Russia</text>
</g>
<g>
	<text transform="matrix(1 0 0 1 1397.749 2628.1587)" class="st0 st1 st2">China</text>
</g>
<g>
	<text transform="matrix(1 0 0 1 1571.9756 2628.1587)" class="st0 st1 st2">United Kingdom</text>
</g>
<g>
	<text transform="matrix(1 0 0 1 1825.585 2628.1587)" class="st0 st1 st2">United States</text>
</g>
<g>
	<text transform="matrix(1 0 0 1 2087.1328 2628.1587)" class="st0 st1 st2">North Korea</text>
</g>
<path class="st0" d="M447.2,249.9c0-4.2,3.4-7.6,7.6-7.6s7.6,3.4,7.6,7.6s-3.4,7.6-7.6,7.6S447.2,254,447.2,249.9z"/>
<path class="st0" d="M447.2,363.3c0-4.2,3.4-7.6,7.6-7.6s7.6,3.4,7.6,7.6s-3.4,7.6-7.6,7.6S447.2,367.4,447.2,363.3z"/>
<path class="st0" d="M447.2,476.6c0-4.2,3.4-7.6,7.6-7.6s7.6,3.4,7.6,7.6s-3.4,7.6-7.6,7.6S447.2,480.8,447.2,476.6z"/>
<path class="st0" d="M446.3,590c0-4.7,3.8-8.5,8.5-8.5s8.5,3.8,8.5,8.5s-3.8,8.5-8.5,8.5S446.3,594.7,446.3,590z"/>
<path class="st0" d="M449.1,703.4c0-3.1,2.5-5.7,5.7-5.7s5.7,2.5,5.7,5.7s-2.5,5.7-5.7,5.7S449.1,706.6,449.1,703.4z"/>
<path class="st0" d="M449.1,816.8c0-3.1,2.5-5.7,5.7-5.7s5.7,2.5,5.7,5.7c0,3.1-2.5,5.7-5.7,5.7S449.1,819.9,449.1,816.8z"/>
<path class="st0" d="M450,1270.4c0-2.6,2.1-4.7,4.7-4.7s4.7,2.1,4.7,4.7s-2.1,4.7-4.7,4.7S450,1273,450,1270.4z"/>
<path class="st0" d="M453.8,1383.7c0-0.5,0.4-0.9,0.9-0.9c0.5,0,0.9,0.4,0.9,0.9c0,0.5-0.4,0.9-0.9,0.9
	C454.2,1384.7,453.8,1384.3,453.8,1383.7z"/>
<path class="st0" d="M698.5,1610.5c0-1,0.8-1.9,1.9-1.9c1,0,1.9,0.8,1.9,1.9s-0.8,1.9-1.9,1.9
	C699.4,1612.4,698.5,1611.6,698.5,1610.5z"/>
<path class="st0" d="M944.2,1610.5c0-1,0.8-1.9,1.9-1.9s1.9,0.8,1.9,1.9s-0.8,1.9-1.9,1.9S944.2,1611.6,944.2,1610.5z"/>
<path class="st0" d="M1166.3,363.3c0-14.1,11.4-25.5,25.5-25.5s25.5,11.4,25.5,25.5c0,14.1-11.4,25.5-25.5,25.5
	S1166.3,377.3,1166.3,363.3z"/>
<path class="st0" d="M1176.7,476.6c0-8.3,6.8-15.1,15.1-15.1s15.1,6.8,15.1,15.1c0,8.3-6.8,15.1-15.1,15.1S1176.7,485,1176.7,476.6z
	"/>
<path class="st0" d="M1183.3,590c0-4.7,3.8-8.5,8.5-8.5s8.5,3.8,8.5,8.5s-3.8,8.5-8.5,8.5S1183.3,594.7,1183.3,590z"/>
<path class="st0" d="M1190.8,703.4c0-0.5,0.4-0.9,0.9-0.9s0.9,0.4,0.9,0.9c0,0.5-0.4,0.9-0.9,0.9S1190.8,703.9,1190.8,703.4z"/>
<path class="st0" d="M1190.8,1270.4c0-0.5,0.4-0.9,0.9-0.9s0.9,0.4,0.9,0.9s-0.4,0.9-0.9,0.9S1190.8,1270.9,1190.8,1270.4z"/>
<path class="st0" d="M1187,1610.5c0-2.6,2.1-4.7,4.7-4.7s4.7,2.1,4.7,4.7s-2.1,4.7-4.7,4.7S1187,1613.1,1187,1610.5z"/>
<path class="st0" d="M1185.2,1723.9c0-3.7,3-6.6,6.6-6.6s6.6,3,6.6,6.6c0,3.7-3,6.6-6.6,6.6S1185.2,1727.6,1185.2,1723.9z"/>
<path class="st0" d="M1187,1837.3c0-2.6,2.1-4.7,4.7-4.7s4.7,2.1,4.7,4.7s-2.1,4.7-4.7,4.7S1187,1839.9,1187,1837.3z"/>
<path class="st0" d="M1436.5,363.3c0-0.5,0.4-0.9,0.9-0.9s0.9,0.4,0.9,0.9c0,0.5-0.4,0.9-0.9,0.9S1436.5,363.8,1436.5,363.3z"/>
<path class="st0" d="M1436.5,476.6c0-0.5,0.4-0.9,0.9-0.9s0.9,0.4,0.9,0.9c0,0.5-0.4,0.9-0.9,0.9S1436.5,477.2,1436.5,476.6z"/>
<path class="st0" d="M1435.6,703.4c0-1,0.8-1.9,1.9-1.9s1.9,0.8,1.9,1.9c0,1-0.8,1.9-1.9,1.9S1435.6,704.5,1435.6,703.4z"/>
<path class="st0" d="M1435.6,930.2c0-1,0.8-1.9,1.9-1.9s1.9,0.8,1.9,1.9c0,1-0.8,1.9-1.9,1.9S1435.6,931.2,1435.6,930.2z"/>
<path class="st0" d="M1435.6,1043.6c0-1,0.8-1.9,1.9-1.9s1.9,0.8,1.9,1.9s-0.8,1.9-1.9,1.9S1435.6,1044.6,1435.6,1043.6z"/>
<path class="st0" d="M1435.6,1157c0-1,0.8-1.9,1.9-1.9s1.9,0.8,1.9,1.9c0,1-0.8,1.9-1.9,1.9S1435.6,1158,1435.6,1157z"/>
<path class="st0" d="M1434.6,1270.4c0-1.6,1.3-2.8,2.8-2.8s2.8,1.3,2.8,2.8s-1.3,2.8-2.8,2.8S1434.6,1271.9,1434.6,1270.4z"/>
<path class="st0" d="M1435.6,1383.7c0-1,0.8-1.9,1.9-1.9s1.9,0.8,1.9,1.9c0,1-0.8,1.9-1.9,1.9S1435.6,1384.8,1435.6,1383.7z"/>
<path class="st0" d="M1436.5,1723.9c0-0.5,0.4-0.9,0.9-0.9s0.9,0.4,0.9,0.9c0,0.5-0.4,0.9-0.9,0.9S1436.5,1724.4,1436.5,1723.9z"/>
<path class="st0" d="M1433.7,1950.7c0-2.1,1.7-3.8,3.8-3.8s3.8,1.7,3.8,3.8c0,2.1-1.7,3.8-3.8,3.8S1433.7,1952.8,1433.7,1950.7z"/>
<path class="st0" d="M1682.2,249.9c0-0.5,0.4-0.9,0.9-0.9s0.9,0.4,0.9,0.9s-0.4,0.9-0.9,0.9S1682.2,250.4,1682.2,249.9z"/>
<path class="st0" d="M1682.2,363.3c0-0.5,0.4-0.9,0.9-0.9s0.9,0.4,0.9,0.9c0,0.5-0.4,0.9-0.9,0.9S1682.2,363.8,1682.2,363.3z"/>
<path class="st0" d="M1682.2,590c0-0.5,0.4-0.9,0.9-0.9s0.9,0.4,0.9,0.9s-0.4,0.9-0.9,0.9S1682.2,590.6,1682.2,590z"/>
<path class="st0" d="M1682.2,703.4c0-0.5,0.4-0.9,0.9-0.9s0.9,0.4,0.9,0.9c0,0.5-0.4,0.9-0.9,0.9S1682.2,703.9,1682.2,703.4z"/>
<path class="st0" d="M1682.2,816.8c0-0.5,0.4-0.9,0.9-0.9s0.9,0.4,0.9,0.9c0,0.5-0.4,0.9-0.9,0.9S1682.2,817.3,1682.2,816.8z"/>
<path class="st0" d="M1682.2,2064.1c0-0.5,0.4-0.9,0.9-0.9s0.9,0.4,0.9,0.9c0,0.5-0.4,0.9-0.9,0.9S1682.2,2064.6,1682.2,2064.1z"/>
<path class="st0" d="M1682.2,2517.6c0-0.5,0.4-0.9,0.9-0.9s0.9,0.4,0.9,0.9s-0.4,0.9-0.9,0.9S1682.2,2518.1,1682.2,2517.6z"/>
<path class="st0" d="M1915.6,249.9c0-7.3,5.9-13.2,13.2-13.2s13.2,5.9,13.2,13.2c0,7.3-5.9,13.2-13.2,13.2
	S1915.6,257.2,1915.6,249.9z"/>
<path class="st0" d="M1915.6,363.3c0-7.3,5.9-13.2,13.2-13.2s13.2,5.9,13.2,13.2s-5.9,13.2-13.2,13.2S1915.6,370.6,1915.6,363.3z"/>
<path class="st0" d="M1914.6,476.6c0-7.8,6.3-14.2,14.2-14.2s14.2,6.3,14.2,14.2c0,7.8-6.3,14.2-14.2,14.2
	S1914.6,484.5,1914.6,476.6z"/>
<path class="st0" d="M1918.4,590c0-5.7,4.7-10.4,10.4-10.4s10.4,4.7,10.4,10.4c0,5.7-4.7,10.4-10.4,10.4S1918.4,595.8,1918.4,590z"
	/>
<path class="st0" d="M1921.2,703.4c0-4.2,3.4-7.6,7.6-7.6s7.6,3.4,7.6,7.6c0,4.2-3.4,7.6-7.6,7.6S1921.2,707.6,1921.2,703.4z"/>
<path class="st0" d="M1922.2,816.8c0-3.7,3-6.6,6.6-6.6c3.7,0,6.6,3,6.6,6.6c0,3.7-3,6.6-6.6,6.6
	C1925.1,823.4,1922.2,820.5,1922.2,816.8z"/>
<path class="st0" d="M1923.1,930.2c0-3.1,2.5-5.7,5.7-5.7s5.7,2.5,5.7,5.7s-2.5,5.7-5.7,5.7S1923.1,933.3,1923.1,930.2z"/>
<path class="st0" d="M1926.9,1497.1c0-1,0.8-1.9,1.9-1.9s1.9,0.8,1.9,1.9c0,1-0.8,1.9-1.9,1.9S1926.9,1498.2,1926.9,1497.1z"/>
<path class="st0" d="M1925.9,1610.5c0-1.6,1.3-2.8,2.8-2.8s2.8,1.3,2.8,2.8s-1.3,2.8-2.8,2.8S1925.9,1612.1,1925.9,1610.5z"/>
<path class="st0" d="M1925.9,1723.9c0-1.6,1.3-2.8,2.8-2.8s2.8,1.3,2.8,2.8s-1.3,2.8-2.8,2.8S1925.9,1725.5,1925.9,1723.9z"/>
<path class="st0" d="M1924.1,1837.3c0-2.6,2.1-4.7,4.7-4.7s4.7,2.1,4.7,4.7s-2.1,4.7-4.7,4.7S1924.1,1839.9,1924.1,1837.3z"/>
<path class="st0" d="M1926.9,1950.7c0-1,0.8-1.9,1.9-1.9s1.9,0.8,1.9,1.9c0,1-0.8,1.9-1.9,1.9S1926.9,1951.7,1926.9,1950.7z"/>
<path class="st0" d="M1925.9,2064.1c0-1.6,1.3-2.8,2.8-2.8s2.8,1.3,2.8,2.8s-1.3,2.8-2.8,2.8S1925.9,2065.6,1925.9,2064.1z"/>
<path class="st0" d="M1926.9,2177.4c0-1,0.8-1.9,1.9-1.9s1.9,0.8,1.9,1.9c0,1-0.8,1.9-1.9,1.9S1926.9,2178.5,1926.9,2177.4z"/>
<path class="st0" d="M1927.8,2517.6c0-0.5,0.4-0.9,0.9-0.9s0.9,0.4,0.9,0.9s-0.4,0.9-0.9,0.9S1927.8,2518.1,1927.8,2517.6z"/>
<path class="st0" d="M2173.5,2517.6c0-0.5,0.4-0.9,0.9-0.9c0.5,0,0.9,0.4,0.9,0.9s-0.4,0.9-0.9,0.9
	C2173.9,2518.6,2173.5,2518.1,2173.5,2517.6z"/>
</svg>
