<?xml version="1.0" encoding="utf-8"?>
<!-- Generator: Adobe Illustrator 23.1.1, SVG Export Plug-In . SVG Version: 6.00 Build 0)  -->
<svg version="1.1" id="Layer_1" xmlns="http://www.w3.org/2000/svg" xmlns:xlink="http://www.w3.org/1999/xlink" x="0px" y="0px"
	 viewBox="0 0 2800 2800" style="enable-background:new 0 0 2800 2800;" xml:space="preserve">
<style type="text/css">
	.st0{fill:#1E1E1E;}
	.st1{font-family:'CourierNewPSMT';}
	.st2{font-size:27.0991px;}
</style>
<g>
	<text transform="matrix(1 0 0 1 145.5781 253.1372)" class="st0 st1 st2">1953</text>
</g>
<g>
	<text transform="matrix(1 0 0 1 145.5781 369.2764)" class="st0 st1 st2">1954</text>
</g>
<g>
	<text transform="matrix(1 0 0 1 145.5781 485.415)" class="st0 st1 st2">1955</text>
</g>
<g>
	<text transform="matrix(1 0 0 1 145.5781 601.5547)" class="st0 st1 st2">1956</text>
</g>
<g>
	<text transform="matrix(1 0 0 1 145.5781 717.6934)" class="st0 st1 st2">1957</text>
</g>
<g>
	<text transform="matrix(1 0 0 1 145.5781 833.832)" class="st0 st1 st2">1958</text>
</g>
<g>
	<text transform="matrix(1 0 0 1 145.5781 949.9717)" class="st0 st1 st2">1959</text>
</g>
<g>
	<text transform="matrix(1 0 0 1 145.5781 1066.1104)" class="st0 st1 st2">1960</text>
</g>
<g>
	<text transform="matrix(1 0 0 1 145.5781 1182.249)" class="st0 st1 st2">1961</text>
</g>
<g>
	<text transform="matrix(1 0 0 1 145.5781 1298.3887)" class="st0 st1 st2">1962</text>
</g>
<g>
	<text transform="matrix(1 0 0 1 145.5781 1414.5273)" class="st0 st1 st2">1963</text>
</g>
<g>
	<text transform="matrix(1 0 0 1 145.5781 1530.666)" class="st0 st1 st2">1964</text>
</g>
<g>
	<text transform="matrix(1 0 0 1 145.5781 1646.8057)" class="st0 st1 st2">1965</text>
</g>
<g>
	<text transform="matrix(1 0 0 1 145.5781 1762.9443)" class="st0 st1 st2">1966</text>
</g>
<g>
	<text transform="matrix(1 0 0 1 145.5781 1879.084)" class="st0 st1 st2">1967</text>
</g>
<g>
	<text transform="matrix(1 0 0 1 145.5781 1995.2227)" class="st0 st1 st2">1968</text>
</g>
<g>
	<text transform="matrix(1 0 0 1 145.5781 2111.3613)" class="st0 st1 st2">1969</text>
</g>
<g>
	<text transform="matrix(1 0 0 1 145.5781 2227.501)" class="st0 st1 st2">1970</text>
</g>
<g>
	<text transform="matrix(1 0 0 1 145.5781 2343.6396)" class="st0 st1 st2">1971</text>
</g>
<g>
	<text transform="matrix(1 0 0 1 145.5781 2459.7783)" class="st0 st1 st2">1972</text>
</g>
<g>
	<text transform="matrix(1 0 0 1 145.5781 2575.918)" class="st0 st1 st2">1973</text>
</g>
<g>
	<text transform="matrix(1 0 0 1 356.5576 2727.0413)" class="st0 st1 st2">United States</text>
</g>
<g>
	<text transform="matrix(1 0 0 1 665.1094 2727.0413)" class="st0 st1 st2">Russia</text>
</g>
<g>
	<text transform="matrix(1 0 0 1 851.6953 2727.0413)" class="st0 st1 st2">United Kingdom</text>
</g>
<g>
	<text transform="matrix(1 0 0 1 1168.3789 2727.0413)" class="st0 st1 st2">France</text>
</g>
<g>
	<text transform="matrix(1 0 0 1 1428.1445 2727.0413)" class="st0 st1 st2">China</text>
</g>
<g>
	<text transform="matrix(1 0 0 1 1679.7793 2727.0413)" class="st0 st1 st2">India</text>
</g>
<g>
	<text transform="matrix(1 0 0 1 1907.0205 2727.0413)" class="st0 st1 st2">Pakistan</text>
</g>
<g>
	<text transform="matrix(1 0 0 1 2134.2617 2727.0413)" class="st0 st1 st2">North Korea</text>
</g>
<path class="st0" d="M451.6,253.1c0-5.9,4.8-10.6,10.6-10.6s10.6,4.8,10.6,10.6c0,5.9-4.8,10.6-10.6,10.6S451.6,259,451.6,253.1z"/>
<path class="st0" d="M456.5,369.3c0-3.2,2.6-5.8,5.8-5.8c3.2,0,5.8,2.6,5.8,5.8s-2.6,5.8-5.8,5.8
	C459.1,375.1,456.5,372.5,456.5,369.3z"/>
<path class="st0" d="M444.8,485.4c0-9.6,7.8-17.4,17.4-17.4s17.4,7.8,17.4,17.4s-7.8,17.4-17.4,17.4S444.8,495,444.8,485.4z"/>
<path class="st0" d="M444.8,601.6c0-9.6,7.8-17.4,17.4-17.4s17.4,7.8,17.4,17.4c0,9.6-7.8,17.4-17.4,17.4S444.8,611.2,444.8,601.6z"
	/>
<path class="st0" d="M431.3,717.7c0-17.1,13.9-31,31-31s31,13.9,31,31s-13.9,31-31,31S431.3,734.8,431.3,717.7z"/>
<path class="st0" d="M387.7,833.8c0-41.2,33.4-74.5,74.5-74.5s74.5,33.4,74.5,74.5c0,41.2-33.4,74.5-74.5,74.5
	S387.7,875,387.7,833.8z"/>
<path class="st0" d="M414.8,1066.1c0-26.2,21.2-47.4,47.4-47.4c26.2,0,47.4,21.2,47.4,47.4c0,26.2-21.2,47.4-47.4,47.4
	C436.1,1113.5,414.8,1092.3,414.8,1066.1z"/>
<path class="st0" d="M451.6,1182.2c0-5.9,4.8-10.6,10.6-10.6s10.6,4.8,10.6,10.6s-4.8,10.6-10.6,10.6S451.6,1188.1,451.6,1182.2z"/>
<path class="st0" d="M369.4,1298.4c0-51.3,41.6-92.9,92.9-92.9s92.9,41.6,92.9,92.9s-41.6,92.9-92.9,92.9S369.4,1349.7,369.4,1298.4
	z"/>
<path class="st0" d="M416.8,1414.5c0-25.1,20.4-45.5,45.5-45.5s45.5,20.4,45.5,45.5s-20.4,45.5-45.5,45.5S416.8,1439.6,416.8,1414.5
	z"/>
<path class="st0" d="M418.7,1530.7c0-24.1,19.5-43.6,43.6-43.6s43.6,19.5,43.6,43.6s-19.5,43.6-43.6,43.6
	C438.2,1574.2,418.7,1554.7,418.7,1530.7z"/>
<path class="st0" d="M425.5,1646.8c0-20.3,16.5-36.8,36.8-36.8s36.8,16.5,36.8,36.8s-16.5,36.8-36.8,36.8
	C441.9,1683.6,425.5,1667.1,425.5,1646.8z"/>
<path class="st0" d="M415.8,1762.9c0-25.7,20.8-46.5,46.5-46.5s46.5,20.8,46.5,46.5s-20.8,46.5-46.5,46.5S415.8,1788.6,415.8,1762.9
	z"/>
<path class="st0" d="M421.6,1879.1c0-22.4,18.2-40.6,40.6-40.6s40.6,18.2,40.6,40.6s-18.2,40.6-40.6,40.6
	C439.8,1919.7,421.6,1901.5,421.6,1879.1z"/>
<path class="st0" d="M408.1,1995.2c0-29.9,24.3-54.2,54.2-54.2c29.9,0,54.2,24.3,54.2,54.2c0,29.9-24.3,54.2-54.2,54.2
	C432.3,2049.4,408.1,2025.2,408.1,1995.2z"/>
<path class="st0" d="M417.7,2111.4c0-24.6,19.9-44.5,44.5-44.5s44.5,19.9,44.5,44.5s-19.9,44.5-44.5,44.5S417.7,2135.9,417.7,2111.4
	z"/>
<path class="st0" d="M424.5,2227.5c0-20.8,16.9-37.7,37.7-37.7s37.7,16.9,37.7,37.7s-16.9,37.7-37.7,37.7S424.5,2248.3,424.5,2227.5
	z"/>
<path class="st0" d="M439,2343.6c0-12.8,10.4-23.2,23.2-23.2c12.8,0,23.2,10.4,23.2,23.2s-10.4,23.2-23.2,23.2
	C449.4,2366.9,439,2356.5,439,2343.6z"/>
<path class="st0" d="M436.1,2459.8c0-14.4,11.7-26.1,26.1-26.1s26.1,11.7,26.1,26.1s-11.7,26.1-26.1,26.1
	C447.8,2485.9,436.1,2474.2,436.1,2459.8z"/>
<path class="st0" d="M439,2575.9c0-12.8,10.4-23.2,23.2-23.2c12.8,0,23.2,10.4,23.2,23.2s-10.4,23.2-23.2,23.2
	C449.4,2599.1,439,2588.7,439,2575.9z"/>
<path class="st0" d="M709.1,253.1c0-2.7,2.2-4.8,4.8-4.8c2.7,0,4.8,2.2,4.8,4.8s-2.2,4.8-4.8,4.8C711.2,258,709.1,255.8,709.1,253.1
	z"/>
<path class="st0" d="M704.2,369.3c0-5.3,4.3-9.7,9.7-9.7c5.3,0,9.7,4.3,9.7,9.7s-4.3,9.7-9.7,9.7C708.6,379,704.2,374.6,704.2,369.3
	z"/>
<path class="st0" d="M708.1,485.4c0-3.2,2.6-5.8,5.8-5.8s5.8,2.6,5.8,5.8c0,3.2-2.6,5.8-5.8,5.8
	C710.7,491.2,708.1,488.6,708.1,485.4z"/>
<path class="st0" d="M705.2,601.6c0-4.8,3.9-8.7,8.7-8.7s8.7,3.9,8.7,8.7s-3.9,8.7-8.7,8.7C709.1,610.3,705.2,606.4,705.2,601.6z"/>
<path class="st0" d="M698.4,717.7c0-8.6,6.9-15.5,15.5-15.5s15.5,6.9,15.5,15.5s-6.9,15.5-15.5,15.5
	C705.3,733.2,698.4,726.2,698.4,717.7z"/>
<path class="st0" d="M679.1,833.8c0-19.2,15.6-34.8,34.8-34.8s34.8,15.6,34.8,34.8s-15.6,34.8-34.8,34.8S679.1,853.1,679.1,833.8z"
	/>
<path class="st0" d="M702.3,1066.1c0-6.4,5.2-11.6,11.6-11.6c6.4,0,11.6,5.2,11.6,11.6s-5.2,11.6-11.6,11.6
	S702.3,1072.5,702.3,1066.1z"/>
<path class="st0" d="M644.2,1182.2c0-38.5,31.2-69.7,69.7-69.7s69.7,31.2,69.7,69.7s-31.2,69.7-69.7,69.7S644.2,1220.7,644.2,1182.2
	z"/>
<path class="st0" d="M637.4,1298.4c0-42.2,34.2-76.5,76.5-76.5s76.5,34.2,76.5,76.5s-34.2,76.5-76.5,76.5S637.4,1340.6,637.4,1298.4
	z"/>
<path class="st0" d="M701.3,1414.5c0-6.9,5.6-12.6,12.6-12.6c6.9,0,12.6,5.6,12.6,12.6s-5.6,12.6-12.6,12.6
	C706.9,1427.1,701.3,1421.5,701.3,1414.5z"/>
<path class="st0" d="M705.2,1530.7c0-4.8,3.9-8.7,8.7-8.7s8.7,3.9,8.7,8.7s-3.9,8.7-8.7,8.7C709.1,1539.4,705.2,1535.5,705.2,1530.7
	z"/>
<path class="st0" d="M697.4,1646.8c0-9.1,7.4-16.5,16.5-16.5s16.5,7.4,16.5,16.5s-7.4,16.5-16.5,16.5
	C704.8,1663.3,697.4,1655.9,697.4,1646.8z"/>
<path class="st0" d="M696.5,1762.9c0-9.6,7.8-17.4,17.4-17.4c9.6,0,17.4,7.8,17.4,17.4s-7.8,17.4-17.4,17.4
	C704.3,1780.4,696.5,1772.6,696.5,1762.9z"/>
<path class="st0" d="M692.6,1879.1c0-11.8,9.5-21.3,21.3-21.3s21.3,9.5,21.3,21.3s-9.5,21.3-21.3,21.3S692.6,1890.8,692.6,1879.1z"
	/>
<path class="st0" d="M696.5,1995.2c0-9.6,7.8-17.4,17.4-17.4c9.6,0,17.4,7.8,17.4,17.4s-7.8,17.4-17.4,17.4
	S696.5,2004.8,696.5,1995.2z"/>
<path class="st0" d="M690.7,2111.4c0-12.8,10.4-23.2,23.2-23.2s23.2,10.4,23.2,23.2s-10.4,23.2-23.2,23.2
	C701.1,2134.6,690.7,2124.2,690.7,2111.4z"/>
<path class="st0" d="M694.5,2227.5c0-10.7,8.7-19.4,19.4-19.4s19.4,8.7,19.4,19.4s-8.7,19.4-19.4,19.4S694.5,2238.2,694.5,2227.5z"
	/>
<path class="st0" d="M690.7,2343.6c0-12.8,10.4-23.2,23.2-23.2s23.2,10.4,23.2,23.2s-10.4,23.2-23.2,23.2
	C701.1,2366.9,690.7,2356.5,690.7,2343.6z"/>
<path class="st0" d="M689.7,2459.8c0-13.4,10.8-24.2,24.2-24.2s24.2,10.8,24.2,24.2s-10.8,24.2-24.2,24.2S689.7,2473.1,689.7,2459.8
	z"/>
<path class="st0" d="M695.5,2575.9c0-10.2,8.2-18.4,18.4-18.4s18.4,8.2,18.4,18.4s-8.2,18.4-18.4,18.4
	C703.7,2594.3,695.5,2586.1,695.5,2575.9z"/>
<path class="st0" d="M963.6,253.1c0-1.1,0.9-1.9,1.9-1.9c1.1,0,1.9,0.9,1.9,1.9s-0.9,1.9-1.9,1.9
	C964.5,255.1,963.6,254.2,963.6,253.1z"/>
<path class="st0" d="M959.7,601.6c0-3.2,2.6-5.8,5.8-5.8s5.8,2.6,5.8,5.8s-2.6,5.8-5.8,5.8S959.7,604.8,959.7,601.6z"/>
<path class="st0" d="M958.8,717.7c0-3.7,3-6.8,6.8-6.8s6.8,3,6.8,6.8s-3,6.8-6.8,6.8S958.8,721.4,958.8,717.7z"/>
<path class="st0" d="M960.7,833.8c0-2.7,2.2-4.8,4.8-4.8c2.7,0,4.8,2.2,4.8,4.8c0,2.7-2.2,4.8-4.8,4.8
	C962.9,838.7,960.7,836.5,960.7,833.8z"/>
<path class="st0" d="M961.7,1066.1c0-2.1,1.7-3.9,3.9-3.9c2.1,0,3.9,1.7,3.9,3.9s-1.7,3.9-3.9,3.9S961.7,1068.2,961.7,1066.1z"/>
<path class="st0" d="M959.7,1182.2c0-3.2,2.6-5.8,5.8-5.8s5.8,2.6,5.8,5.8c0,3.2-2.6,5.8-5.8,5.8S959.7,1185.5,959.7,1182.2z"/>
<path class="st0" d="M963.6,1298.4c0-1.1,0.9-1.9,1.9-1.9c1.1,0,1.9,0.9,1.9,1.9s-0.9,1.9-1.9,1.9S963.6,1299.5,963.6,1298.4z"/>
<path class="st0" d="M961.7,1414.5c0-2.1,1.7-3.9,3.9-3.9c2.1,0,3.9,1.7,3.9,3.9s-1.7,3.9-3.9,3.9S961.7,1416.7,961.7,1414.5z"/>
<path class="st0" d="M963.6,1530.7c0-1.1,0.9-1.9,1.9-1.9c1.1,0,1.9,0.9,1.9,1.9s-0.9,1.9-1.9,1.9S963.6,1531.7,963.6,1530.7z"/>
<path class="st0" d="M964.6,1646.8c0-0.5,0.4-1,1-1s1,0.4,1,1c0,0.5-0.4,1-1,1S964.6,1647.3,964.6,1646.8z"/>
<path class="st0" d="M1214.3,1066.1c0-1.6,1.3-2.9,2.9-2.9s2.9,1.3,2.9,2.9s-1.3,2.9-2.9,2.9
	C1215.6,1069,1214.3,1067.7,1214.3,1066.1z"/>
<path class="st0" d="M1215.2,1182.2c0-1.1,0.9-1.9,1.9-1.9c1.1,0,1.9,0.9,1.9,1.9s-0.9,1.9-1.9,1.9
	C1216.1,1184.2,1215.2,1183.3,1215.2,1182.2z"/>
<path class="st0" d="M1216.2,1298.4c0-0.5,0.4-1,1-1c0.5,0,1,0.4,1,1s-0.4,1-1,1S1216.2,1298.9,1216.2,1298.4z"/>
<path class="st0" d="M1214.3,1414.5c0-1.6,1.3-2.9,2.9-2.9s2.9,1.3,2.9,2.9s-1.3,2.9-2.9,2.9
	C1215.6,1417.4,1214.3,1416.1,1214.3,1414.5z"/>
<path class="st0" d="M1214.3,1530.7c0-1.6,1.3-2.9,2.9-2.9s2.9,1.3,2.9,2.9s-1.3,2.9-2.9,2.9
	C1215.6,1533.6,1214.3,1532.3,1214.3,1530.7z"/>
<path class="st0" d="M1213.3,1646.8c0-2.1,1.7-3.9,3.9-3.9c2.1,0,3.9,1.7,3.9,3.9c0,2.1-1.7,3.9-3.9,3.9
	C1215,1650.7,1213.3,1648.9,1213.3,1646.8z"/>
<path class="st0" d="M1210.4,1762.9c0-3.7,3-6.8,6.8-6.8s6.8,3,6.8,6.8s-3,6.8-6.8,6.8S1210.4,1766.7,1210.4,1762.9z"/>
<path class="st0" d="M1214.3,1879.1c0-1.6,1.3-2.9,2.9-2.9s2.9,1.3,2.9,2.9s-1.3,2.9-2.9,2.9
	C1215.6,1882,1214.3,1880.7,1214.3,1879.1z"/>
<path class="st0" d="M1212.3,1995.2c0-2.7,2.2-4.8,4.8-4.8c2.7,0,4.8,2.2,4.8,4.8c0,2.7-2.2,4.8-4.8,4.8
	C1214.5,2000.1,1212.3,1997.9,1212.3,1995.2z"/>
<path class="st0" d="M1209.4,2227.5c0-4.3,3.5-7.7,7.7-7.7c4.3,0,7.7,3.5,7.7,7.7s-3.5,7.7-7.7,7.7S1209.4,2231.8,1209.4,2227.5z"/>
<path class="st0" d="M1212.3,2343.6c0-2.7,2.2-4.8,4.8-4.8c2.7,0,4.8,2.2,4.8,4.8s-2.2,4.8-4.8,4.8
	C1214.5,2348.5,1212.3,2346.3,1212.3,2343.6z"/>
<path class="st0" d="M1213.3,2459.8c0-2.1,1.7-3.9,3.9-3.9c2.1,0,3.9,1.7,3.9,3.9s-1.7,3.9-3.9,3.9
	C1215,2463.6,1213.3,2461.9,1213.3,2459.8z"/>
<path class="st0" d="M1211.4,2575.9c0-3.2,2.6-5.8,5.8-5.8c3.2,0,5.8,2.6,5.8,5.8s-2.6,5.8-5.8,5.8S1211.4,2579.1,1211.4,2575.9z"/>
<path class="st0" d="M1467.8,1530.7c0-0.5,0.4-1,1-1c0.5,0,1,0.4,1,1c0,0.5-0.4,1-1,1C1468.3,1531.6,1467.8,1531.2,1467.8,1530.7z"
	/>
<path class="st0" d="M1467.8,1646.8c0-0.5,0.4-1,1-1c0.5,0,1,0.4,1,1c0,0.5-0.4,1-1,1C1468.3,1647.8,1467.8,1647.3,1467.8,1646.8z"
	/>
<path class="st0" d="M1465.9,1762.9c0-1.6,1.3-2.9,2.9-2.9s2.9,1.3,2.9,2.9s-1.3,2.9-2.9,2.9
	C1467.2,1765.8,1465.9,1764.5,1465.9,1762.9z"/>
<path class="st0" d="M1466.9,1879.1c0-1.1,0.9-1.9,1.9-1.9s1.9,0.9,1.9,1.9c0,1.1-0.9,1.9-1.9,1.9S1466.9,1880.2,1466.9,1879.1z"/>
<path class="st0" d="M1467.8,1995.2c0-0.5,0.4-1,1-1c0.5,0,1,0.4,1,1c0,0.5-0.4,1-1,1C1468.3,1996.2,1467.8,1995.8,1467.8,1995.2z"
	/>
<path class="st0" d="M1466.9,2111.4c0-1.1,0.9-1.9,1.9-1.9s1.9,0.9,1.9,1.9c0,1.1-0.9,1.9-1.9,1.9S1466.9,2112.4,1466.9,2111.4z"/>
<path class="st0" d="M1467.8,2227.5c0-0.5,0.4-1,1-1c0.5,0,1,0.4,1,1s-0.4,1-1,1C1468.3,2228.5,1467.8,2228,1467.8,2227.5z"/>
<path class="st0" d="M1467.8,2343.6c0-0.5,0.4-1,1-1c0.5,0,1,0.4,1,1c0,0.5-0.4,1-1,1C1468.3,2344.6,1467.8,2344.2,1467.8,2343.6z"
	/>
<path class="st0" d="M1466.9,2459.8c0-1.1,0.9-1.9,1.9-1.9s1.9,0.9,1.9,1.9s-0.9,1.9-1.9,1.9S1466.9,2460.8,1466.9,2459.8z"/>
<path class="st0" d="M1467.8,2575.9c0-0.5,0.4-1,1-1c0.5,0,1,0.4,1,1c0,0.5-0.4,1-1,1C1468.3,2576.9,1467.8,2576.5,1467.8,2575.9z"
	/>
</svg>
